<svg version="1.1" id="Layer_1" xmlns="http://www.w3.org/2000/svg" xmlns:xlink="http://www.w3.org/1999/xlink" x="0px" y="0px"
	 width="100%" viewBox="0 0 1200 1200" enable-background="new 0 0 1200 1200" xml:space="preserve">
<path fill="#000000" opacity="1.000000" stroke="none" 
	d="
M694.000000,1201.000000 
	C464.166656,1201.000000 234.833328,1200.989502 5.500042,1201.093628 
	C1.750800,1201.095215 0.906084,1200.249023 0.907021,1196.500000 
	C1.006199,799.500000 1.006199,402.500000 0.907021,5.500023 
	C0.906084,1.750933 1.750933,0.906086 5.500023,0.907022 
	C402.500000,1.006185 799.500000,1.006186 1196.500000,0.907022 
	C1200.249023,0.906086 1201.093994,1.750932 1201.093140,5.500023 
	C1200.993896,402.500000 1200.993896,799.500000 1201.093140,1196.500000 
	C1201.093994,1200.249023 1200.249268,1201.096313 1196.500000,1201.093872 
	C1029.166626,1200.985474 861.833313,1201.000000 694.000000,1201.000000 
z"/>
<path fill="#91AFAB" opacity="1.000000" stroke="none" 
	d="
M310.165894,677.819275 
	C300.775696,680.296021 297.407867,674.463257 293.721558,667.568481 
	C281.467316,644.648315 268.539551,622.089355 256.111450,599.260437 
	C252.614868,592.837708 249.380707,586.271484 245.513672,580.054626 
	C244.217163,577.970337 245.268692,576.183167 246.218002,574.535339 
	C262.441528,546.373962 278.720032,518.244202 294.981750,490.104828 
	C295.143494,489.824951 295.251953,489.512268 295.368225,489.208374 
	C297.734955,483.024048 302.096893,481.723328 308.633728,481.803925 
	C342.937195,482.227051 377.248718,482.027618 411.557220,481.952271 
	C414.263458,481.946320 415.766937,482.577667 417.188293,485.196381 
	C421.444458,493.037964 426.216644,500.599487 430.945526,508.582947 
	C430.046783,510.645966 428.152863,510.989624 426.444458,511.536865 
	C419.304138,513.824036 412.387604,516.741089 405.234924,518.991699 
	C393.650757,522.636719 387.015228,530.596252 384.506104,542.387451 
	C383.098572,549.002258 383.051727,556.058899 378.775055,561.852722 
	C378.185852,562.650879 377.802643,563.601990 377.171295,564.380249 
	C375.251923,566.746338 373.421661,566.612183 372.394775,563.761047 
	C370.152313,557.534973 367.318939,551.530151 367.420471,544.574097 
	C367.537323,536.567810 366.562408,528.588989 363.557831,521.054138 
	C358.539917,508.470093 350.598450,498.629883 337.408081,493.878754 
	C336.467957,493.540100 335.510773,493.247589 334.534821,493.027863 
	C328.042847,491.566406 326.776123,492.635590 327.451477,499.220154 
	C328.079956,505.347321 328.771637,511.476471 329.812195,517.544128 
	C332.531433,533.400208 341.951324,543.420105 357.128082,548.197571 
	C364.609314,550.552612 370.968964,560.146240 370.014465,567.748596 
	C369.624329,570.855652 367.329956,571.232117 364.964020,571.530029 
	C356.978455,572.535767 349.245789,574.477661 341.932587,577.873718 
	C336.372406,580.455811 331.154907,583.566711 326.129669,588.861084 
	C329.986816,588.927063 331.550140,586.807373 333.470764,585.568909 
	C338.479736,582.338989 339.986664,582.284485 344.704132,585.693481 
	C350.090759,589.585938 355.604950,593.230103 359.043427,599.317993 
	C363.451965,607.123352 360.745972,612.874390 351.924866,613.464783 
	C349.552795,613.623535 347.109009,613.741394 345.405182,615.508911 
	C341.945862,619.097290 337.696198,619.710144 333.038300,619.529236 
	C329.201111,619.380127 325.544250,620.308594 323.577301,623.928406 
	C320.283661,629.989807 323.676605,634.854492 327.093933,639.449829 
	C330.062134,643.441223 334.169830,644.881836 338.571777,642.652405 
	C344.106903,639.848938 348.382172,641.817261 353.603363,643.758179 
	C361.144501,646.561523 366.162689,651.512817 370.641479,657.668823 
	C372.901764,660.775513 373.340912,663.620239 369.822906,665.685608 
	C364.592682,668.756409 363.045380,674.559692 359.032654,678.938782 
	C356.243378,679.774048 353.784119,679.635559 350.929321,679.349731 
	C343.670959,676.134338 340.581268,669.832520 337.529755,663.553223 
	C336.443237,661.317444 335.995514,658.814758 335.238556,656.439575 
	C334.078766,652.800476 331.956696,649.864014 328.510895,648.144348 
	C323.952118,645.869141 320.277496,642.599548 317.012756,638.756653 
	C315.176514,636.595215 313.166138,634.482300 310.300842,633.780640 
	C305.788483,632.675720 305.075104,629.566223 305.942749,625.749817 
	C307.013214,621.041321 308.664337,616.511169 310.799225,612.162170 
	C311.576630,610.578491 312.694733,609.050049 312.288422,606.668640 
	C309.691589,607.904602 308.971893,610.207397 308.071960,612.214355 
	C299.418884,631.511658 299.294159,650.809326 308.183807,670.096558 
	C309.269592,672.452393 311.145691,674.618896 310.165894,677.819275 
z"/>
<path fill="#F7ECE0" opacity="1.000000" stroke="none" 
	d="
M358.657532,678.288025 
	C361.139374,671.942261 364.780640,666.966064 370.345978,663.522888 
	C372.137665,662.414307 371.827545,661.367676 370.630798,659.932617 
	C368.181396,656.995544 365.935272,653.889832 363.535614,650.909851 
	C362.159851,649.201294 360.515411,647.608337 358.280334,647.329712 
	C355.160217,646.940796 352.621613,645.422424 350.148254,643.745300 
	C347.104675,641.681580 344.273834,641.380920 340.871338,643.278320 
	C334.331085,646.925476 329.593506,645.774475 325.334229,639.707703 
	C323.629730,637.279968 322.041473,634.623291 321.102081,631.834412 
	C318.668610,624.609619 324.023285,617.821777 332.198425,618.008606 
	C337.150482,618.121765 341.600647,618.271057 345.128693,613.792419 
	C346.965912,611.460266 350.271606,611.895813 353.130188,611.902222 
	C359.170471,611.915833 361.711945,607.085999 358.962677,601.689697 
	C354.964691,593.842285 347.531372,589.819580 341.035004,584.716492 
	C339.504730,583.514465 338.187073,584.238586 336.931488,585.078857 
	C334.859375,586.465454 332.936523,588.088257 330.805237,589.369324 
	C329.034851,590.433411 327.201447,593.395691 324.958405,590.362061 
	C322.978943,587.684875 325.883392,586.503540 327.363464,585.285645 
	C335.061188,578.951721 343.846802,574.637634 353.480682,572.185425 
	C357.485657,571.165955 361.620789,570.480042 365.737885,570.137329 
	C368.777252,569.884399 369.545197,568.796509 368.602173,566.056091 
	C368.062439,564.487488 367.577942,562.889832 367.213715,561.272583 
	C365.776154,554.889771 362.768005,551.075439 355.668243,548.988037 
	C339.089172,544.113708 329.837341,532.251343 327.957825,514.865051 
	C327.279724,508.592407 326.622650,502.296936 325.464905,496.103668 
	C324.655273,491.772858 326.343048,490.582153 330.180511,490.941376 
	C342.712067,492.114319 351.763916,498.925171 358.831512,508.811249 
	C365.430603,518.041992 368.792297,528.629883 368.555725,539.738281 
	C368.359467,548.954651 371.556824,556.941406 374.626160,566.414551 
	C376.730865,560.995483 380.622650,557.677612 381.240448,552.239136 
	C381.912384,546.323914 382.915131,540.360168 385.284454,534.802979 
	C388.270233,527.799927 392.960815,522.240906 400.183655,519.458008 
	C410.106201,515.634949 420.066437,511.880951 430.708801,508.934875 
	C433.698120,508.831268 432.870911,510.765137 433.033051,512.524658 
	C434.483459,526.095093 429.897705,537.471313 421.887115,547.485596 
	C413.633240,557.804016 402.748383,562.684082 389.354523,561.107422 
	C387.166718,560.849915 385.498016,561.425964 384.159271,563.254211 
	C381.301636,567.156555 381.903442,568.777039 386.668060,569.968933 
	C413.039612,576.565552 430.893127,592.703186 440.375458,618.121155 
	C441.593384,621.385925 442.483643,624.784790 442.158264,628.712769 
	C445.413696,650.069885 440.625000,669.273987 427.483948,685.714661 
	C416.796173,699.086060 402.922699,708.001587 385.459991,711.162109 
	C368.866486,714.165222 353.261444,712.107056 338.362640,704.684021 
	C326.539703,698.793579 317.836731,689.278381 310.049377,678.417114 
	C307.812469,671.465759 304.085724,665.501587 302.378479,658.661499 
	C298.035126,641.260132 300.089020,624.698303 308.048645,608.752380 
	C308.420227,608.007996 308.775818,607.246338 309.235199,606.556946 
	C310.267212,605.008118 311.360901,603.243652 313.582672,604.589172 
	C315.505249,605.753540 314.817078,607.437073 313.975861,608.967529 
	C311.480194,613.507874 309.549652,618.274231 308.063354,623.235779 
	C306.014435,630.075439 305.978180,630.087646 312.266296,632.753784 
	C314.164368,633.558472 315.756287,634.784180 316.992676,636.347839 
	C320.738251,641.084839 324.895905,645.091614 330.622101,647.604309 
	C334.422028,649.271729 336.224731,653.141235 337.015930,657.254944 
	C338.626160,665.627014 343.489624,672.038330 349.724976,677.925659 
	C352.617004,681.147583 353.125336,684.656372 352.632324,687.621033 
	C353.791809,684.928589 355.660095,681.458862 358.657532,678.288025 
z"/>
<path fill="#91AFAB" opacity="1.000000" stroke="none" 
	d="
M442.367249,628.916931 
	C439.228638,618.235168 435.582306,607.792358 428.574646,598.784790 
	C416.962891,583.859070 402.207977,574.091919 383.379059,571.024231 
	C379.711487,570.426758 379.443878,568.939392 380.856323,565.946289 
	C382.971069,561.465149 384.981873,558.611328 391.273834,559.609009 
	C404.761475,561.747681 418.634796,553.025513 425.738373,539.520447 
	C429.998352,531.421509 431.682861,522.648743 432.977722,513.316040 
	C443.862244,531.586060 454.224243,550.535400 465.676178,568.801453 
	C469.961273,575.636230 469.720245,580.405396 465.717407,587.038025 
	C457.515778,600.628113 450.305756,614.816650 442.367249,628.916931 
z"/>
<path fill="#FAEEE2" opacity="1.000000" stroke="none" 
	d="
M689.000122,517.975098 
	C689.000061,510.147675 689.010376,502.815765 688.997009,495.483917 
	C688.984802,488.776367 686.792236,484.514984 683.122620,484.001617 
	C676.836975,483.122345 671.224121,486.615692 668.980408,492.599640 
	C667.595032,496.294312 666.844360,499.995575 666.943237,503.989105 
	C667.137085,511.816101 666.943481,519.651855 667.026428,527.482727 
	C667.062500,530.885864 667.377197,534.300049 672.198486,533.999756 
	C673.418640,533.923828 674.047607,534.370056 673.995117,535.677490 
	C673.932922,537.224243 672.792786,536.984009 671.864624,536.986633 
	C664.699463,537.007324 657.534180,537.006897 650.368958,536.989197 
	C649.275208,536.986450 647.931641,537.315979 648.004944,535.410583 
	C648.062500,533.917603 649.036804,533.996399 650.058960,533.999207 
	C654.678955,534.011902 655.901550,530.817139 655.946228,527.149902 
	C656.090271,515.320679 656.181519,503.484131 655.889832,491.660339 
	C655.801636,488.085999 655.383972,483.711273 649.853882,484.016998 
	C647.667419,484.137848 648.085144,482.682404 647.987427,481.402802 
	C647.868286,479.842407 648.185974,478.931427 650.082275,478.970062 
	C654.912354,479.068604 659.748230,479.090607 664.576782,478.959686 
	C666.639221,478.903717 667.135986,479.725189 667.030518,481.591492 
	C666.901672,483.872223 666.999817,486.165802 666.999817,489.396881 
	C671.243347,482.360718 676.464539,479.071442 684.192322,478.814087 
	C692.591919,478.534393 696.863770,482.586395 699.341919,489.874573 
	C705.728882,478.554199 718.290771,475.007690 727.448669,481.807495 
	C730.794128,484.291534 732.031860,487.680725 732.015442,491.738495 
	C731.970276,502.902740 731.998718,514.067322 732.000183,525.231750 
	C732.000854,530.091858 733.066406,534.100891 739.142334,533.995300 
	C740.322998,533.974792 741.020874,534.310120 740.995178,535.643188 
	C740.965088,537.199951 739.835388,536.984741 738.897400,536.986938 
	C731.232239,537.005066 723.567139,536.994995 715.901978,536.999390 
	C714.832153,537.000000 713.917847,536.901917 714.004944,535.442139 
	C714.065674,534.425842 714.490173,533.916565 715.519836,534.008484 
	C721.994690,534.586731 721.767029,529.131104 721.805176,525.678711 
	C721.940308,513.444946 722.892822,501.160797 721.009338,488.959106 
	C720.311951,484.441589 713.699524,481.960052 708.983459,484.569977 
	C703.058960,487.848755 700.198853,493.120728 700.052490,499.699554 
	C699.845032,509.026428 700.200500,518.367615 699.909424,527.690002 
	C699.777344,531.919739 701.416748,533.747070 705.399475,534.014465 
	C706.421814,534.083130 707.909790,533.429016 707.976807,535.380798 
	C708.056641,537.702820 706.282166,536.959351 705.161621,536.969299 
	C698.330139,537.029785 691.497620,537.027100 684.666138,536.968323 
	C683.684570,536.959900 682.189270,537.632629 682.011292,535.708923 
	C681.846619,533.929077 683.063782,534.188293 684.227905,533.951111 
	C687.681702,533.247192 688.807129,530.584412 688.966614,527.466919 
	C689.119690,524.475403 688.999939,521.469910 689.000122,517.975098 
z"/>
<path fill="#FAEEE2" opacity="1.000000" stroke="none" 
	d="
M539.005554,630.962036 
	C539.003967,613.143127 538.938904,595.818115 539.047668,578.494202 
	C539.073242,574.414795 538.307312,571.526917 533.388184,572.000610 
	C531.835144,572.150146 530.950378,571.804688 530.949707,569.898132 
	C530.948975,567.762024 532.264648,567.961792 533.582092,568.009033 
	C541.494263,568.292358 549.364807,569.537598 557.313354,569.021790 
	C558.149231,568.967590 558.927917,569.098694 558.994873,570.269531 
	C559.070068,571.584106 558.469299,572.131226 557.242798,571.986511 
	C551.428528,571.300781 550.804871,574.750183 550.941223,579.364380 
	C551.162537,586.854065 551.126770,594.357971 550.952759,601.850098 
	C550.866699,605.556458 552.406128,605.395508 555.131836,604.424805 
	C561.006165,602.332886 563.583740,597.082031 566.930054,592.559448 
	C570.462219,587.785706 574.715881,583.588196 577.133728,577.934631 
	C578.943726,573.702148 577.051331,572.612061 573.591187,572.000305 
	C572.585388,571.822388 571.086426,572.594055 571.019409,570.629211 
	C570.940613,568.316589 572.705688,569.008972 573.826050,569.035034 
	C579.602600,569.169373 585.336365,568.807739 591.065063,568.062378 
	C592.094849,567.928345 593.847778,567.184692 594.028442,569.513733 
	C594.181152,571.482483 593.388123,571.752441 591.556396,572.106934 
	C585.035706,573.368774 581.775330,578.829712 578.177246,583.577393 
	C574.179016,588.852966 570.497070,594.366333 566.148071,599.380249 
	C564.496216,601.284668 563.633606,602.755005 565.711243,605.556335 
	C573.595825,616.187134 580.871216,627.267822 588.631348,637.994385 
	C590.367065,640.393616 592.430237,642.929016 595.889465,643.485840 
	C596.705261,643.617126 598.220642,643.916748 598.013855,645.668518 
	C597.782166,647.630554 596.358093,646.959717 595.379578,646.968384 
	C588.716736,647.026794 582.053101,647.009399 575.389893,646.987183 
	C574.309998,646.983582 572.960327,647.345947 573.003479,645.431946 
	C573.037231,643.933167 574.000000,644.083984 575.011841,643.981506 
	C578.029236,643.675659 578.729980,642.832642 576.612915,639.975342 
	C569.703125,630.649414 564.662415,620.022278 556.830994,611.322815 
	C556.074097,610.481995 555.216003,609.445374 554.220764,609.173340 
	C552.729675,608.765991 550.926880,608.354126 550.961670,611.206421 
	C551.077576,620.700195 550.966064,630.196472 551.019897,639.691406 
	C551.039368,643.127625 553.206482,644.146179 556.298828,644.023560 
	C557.521790,643.975037 559.217224,643.527161 558.963745,645.784485 
	C558.752991,647.661011 557.208008,647.029297 556.260681,646.954468 
	C548.798706,646.365417 541.482178,648.707275 534.026062,647.994324 
	C532.701782,647.867737 530.955688,648.655212 530.947632,646.050537 
	C530.940002,643.563293 532.514465,643.958130 533.939941,644.015869 
	C537.878845,644.175049 539.206177,642.087524 539.022766,638.451721 
	C538.905457,636.125488 539.003845,633.788452 539.005554,630.962036 
z"/>
<path fill="#FAEEE2" opacity="1.000000" stroke="none" 
	d="
M841.001404,512.999268 
	C841.000977,506.007782 840.965942,499.515839 841.013733,493.024506 
	C841.039978,489.459259 840.370667,485.772064 836.868042,484.568390 
	C833.057861,483.259033 828.782227,483.069611 825.280701,486.202057 
	C820.256714,490.696655 818.219788,496.541504 818.046326,503.036530 
	C817.846436,510.521576 818.015259,518.016113 817.993835,525.506470 
	C817.981873,529.686462 818.420349,533.534058 823.787354,534.008057 
	C824.968384,534.112366 824.974304,534.893494 824.981812,535.730164 
	C824.992249,536.889404 824.173157,536.988098 823.314819,536.988831 
	C815.824463,536.995239 808.334045,536.991577 800.843689,537.000244 
	C799.739990,537.001526 798.926514,536.811157 799.004395,535.388367 
	C799.086304,533.893372 800.083801,533.984802 801.088501,534.003601 
	C805.872253,534.093384 807.064758,531.269348 807.032593,527.076599 
	C806.940491,515.092712 806.937927,503.107086 807.033447,491.123199 
	C807.067566,486.839966 805.598572,484.027496 800.968750,484.056885 
	C798.875244,484.070129 798.975708,482.975647 798.986389,481.570312 
	C798.996887,480.196716 798.814087,478.931366 800.913391,478.972443 
	C805.904846,479.070129 810.900696,479.066101 815.892212,478.970947 
	C817.779480,478.934937 818.062988,479.849823 818.019043,481.407104 
	C817.943909,484.067383 817.998291,486.731293 817.998291,490.374664 
	C821.163269,485.225555 823.969238,480.914398 829.717346,479.714233 
	C841.995300,477.150787 852.723877,479.905487 852.076721,495.865662 
	C851.665649,506.002655 851.953491,516.170166 852.022766,526.323364 
	C852.050415,530.368347 852.873779,534.000061 858.102905,533.989624 
	C859.245239,533.987366 859.989441,534.194824 860.003235,535.568665 
	C860.018921,537.130066 858.946472,536.988953 857.977051,536.990723 
	C850.653137,537.003845 843.329163,537.002869 836.005249,536.991882 
	C835.024109,536.990356 833.975342,537.100891 833.996338,535.550476 
	C834.015259,534.153564 834.811646,533.943970 835.922546,534.001587 
	C840.257446,534.226257 841.140625,531.653687 841.034729,527.979553 
	C840.895752,523.156433 841.001099,518.326172 841.001404,512.999268 
z"/>
<path fill="#FAEEE2" opacity="1.000000" stroke="none" 
	d="
M788.014038,530.931030 
	C789.907471,532.529053 792.074097,532.401855 793.740295,531.597290 
	C795.215881,530.884766 795.881287,531.178589 796.591492,532.196106 
	C797.825623,533.964294 795.852783,533.758606 795.183289,534.403870 
	C791.018372,538.417969 785.938538,537.236389 781.172302,536.538635 
	C778.140076,536.094849 777.103333,533.192383 776.667480,529.493408 
	C771.199463,537.305908 763.513672,537.435730 755.649231,536.999084 
	C751.080383,536.745422 746.515320,532.019775 745.954834,527.549622 
	C744.643127,517.088684 750.396667,512.317261 758.413330,509.025360 
	C762.845581,507.205292 767.442932,505.784058 771.857300,503.925171 
	C774.338196,502.880432 776.302368,501.172760 776.031677,497.951508 
	C775.864807,495.965912 775.827026,493.937042 776.029968,491.958221 
	C777.054077,481.972229 768.245361,480.507294 760.750977,482.796448 
	C758.411865,483.510925 757.148499,483.947174 759.754395,486.753540 
	C761.963867,489.133026 763.145142,493.352356 760.030273,496.293884 
	C757.498596,498.684784 754.078064,498.810791 750.929626,496.975403 
	C747.163025,494.779633 747.141663,488.333496 750.802795,484.693268 
	C753.634766,481.877563 757.132263,480.147675 760.963562,479.604248 
	C767.417786,478.688782 774.065430,477.667267 780.202637,480.811005 
	C785.348633,483.446960 786.850098,488.502350 786.942322,493.808441 
	C787.133362,504.803070 786.995056,515.803345 787.006409,526.801331 
	C787.007751,528.103638 786.710938,529.507812 788.014038,530.931030 
z"/>
<path fill="#FAEEE2" opacity="1.000000" stroke="none" 
	d="
M676.243347,605.601257 
	C673.677002,599.117310 674.915405,595.277344 682.208862,591.473389 
	C689.223450,587.814941 697.129639,587.828125 704.607056,590.019348 
	C711.702393,592.098633 713.909790,598.117676 713.973572,604.947937 
	C714.073120,615.607300 713.986755,626.268188 714.005737,636.928467 
	C714.014648,641.940430 715.138000,642.893127 719.853943,641.548645 
	C721.005981,641.220276 722.202881,640.473755 722.876099,641.610535 
	C723.447632,642.575806 722.850769,643.738098 721.833618,644.638306 
	C716.587524,649.281189 707.093201,647.704651 703.861206,641.589294 
	C702.894409,639.759888 702.623413,640.738831 701.568604,641.796509 
	C695.614685,647.766357 687.972595,647.855896 680.437988,646.681946 
	C676.186401,646.019470 673.497681,642.478210 673.094543,638.169495 
	C672.574280,632.607910 672.397400,626.900696 677.771179,623.027954 
	C683.866943,618.634888 691.258789,617.158875 697.950684,614.101013 
	C701.783752,612.349426 703.777588,610.109863 703.003723,605.843689 
	C702.974487,605.682434 702.976257,605.507263 703.003418,605.345215 
	C705.403076,591.054138 693.815552,589.117493 684.304199,594.463806 
	C688.150513,598.903992 689.181641,604.074280 686.729431,606.624329 
	C684.676697,608.758972 679.499634,608.422424 676.243347,605.601257 
z"/>
<path fill="#FAEEE2" opacity="1.000000" stroke="none" 
	d="
M625.000000,496.706146 
	C625.000000,496.089813 624.978394,495.920044 625.003113,495.757233 
	C627.247437,480.960846 616.567444,479.366913 606.372131,484.254730 
	C606.825012,486.542542 610.086670,487.037750 609.970398,489.604614 
	C609.845276,492.366577 610.945435,495.607666 607.357117,497.200989 
	C604.688782,498.385803 601.876709,498.923340 599.526123,496.892456 
	C596.799500,494.536713 596.238586,491.360321 597.534485,487.973053 
	C599.061401,483.981781 602.649658,481.915375 606.132812,480.508728 
	C612.191162,478.062134 618.841309,478.430908 625.138977,479.249268 
	C631.440491,480.068115 635.943054,487.145569 635.984985,494.677765 
	C636.044312,505.334930 635.990601,515.992676 636.003906,526.650146 
	C636.010681,532.112183 636.859558,532.822449 642.040710,531.450745 
	C643.163818,531.153442 644.308411,530.385254 644.914246,531.801575 
	C645.407043,532.953735 644.657654,533.933960 643.655823,534.765076 
	C637.814514,539.610352 628.690491,537.507935 624.734192,530.352051 
	C618.811584,538.400879 605.443848,538.759277 598.835632,534.969788 
	C593.588196,531.960571 593.235596,517.119873 599.894409,512.890991 
	C606.515930,508.685791 614.152405,507.130615 620.977417,503.572845 
	C623.717285,502.144562 625.619629,500.529938 625.000000,496.706146 
z"/>
<path fill="#FAEEE2" opacity="1.000000" stroke="none" 
	d="
M557.000000,536.999634 
	C549.005066,536.999573 541.509644,537.039062 534.015625,536.955261 
	C532.941833,536.943298 531.085754,537.860229 531.034058,535.559082 
	C530.982910,533.284546 532.783142,534.144409 533.921143,534.012695 
	C537.597168,533.587341 539.129883,531.880920 539.090271,527.882507 
	C538.894165,508.064453 538.937988,488.243011 539.051758,468.423706 
	C539.075562,464.273987 538.158630,461.525513 533.319763,462.003693 
	C531.686340,462.165131 530.910034,461.670227 530.955017,459.828796 
	C530.996033,458.148651 531.847351,457.955688 533.150208,457.997803 
	C541.228638,458.258789 549.263794,459.540192 557.376404,459.021576 
	C558.252136,458.965546 558.959473,459.189758 559.001221,460.332458 
	C559.050232,461.676971 558.359009,462.118988 557.180298,461.988129 
	C551.343994,461.340149 550.908813,464.871460 550.941162,469.423492 
	C551.079651,488.909363 551.083740,508.397430 550.935608,527.883179 
	C550.901794,532.334473 552.415833,534.309631 556.988708,534.043030 
	C562.279175,533.734619 567.653625,534.222290 572.872925,533.502991 
	C579.132446,532.640320 582.199890,528.022034 582.896484,522.071350 
	C583.180786,519.641907 584.567322,517.413696 584.026672,514.851501 
	C583.689148,513.251831 584.675232,512.983765 586.078918,512.968994 
	C587.633606,512.952698 588.456909,513.652161 587.949829,515.001465 
	C585.619446,521.202820 587.843384,527.348083 588.066528,533.502197 
	C588.170166,536.360413 587.285767,537.118774 584.480713,537.064453 
	C575.490112,536.890137 566.494019,536.999634 557.000000,536.999634 
z"/>
<path fill="#FAEEE2" opacity="1.000000" stroke="none" 
	d="
M666.520264,592.703369 
	C664.789490,592.970154 663.457458,592.997009 662.125366,592.998474 
	C650.999451,593.011169 650.999390,593.009705 650.999451,604.384705 
	C650.999451,614.544128 650.924133,624.704285 651.027039,634.862610 
	C651.092163,641.286621 653.746277,643.986145 659.146362,642.914612 
	C662.335571,642.281860 664.112488,639.965759 665.230164,636.666626 
	C665.769897,635.073425 666.041138,631.034729 669.122681,632.253662 
	C671.735718,633.287231 669.429932,636.090454 668.883972,637.812439 
	C666.208618,646.250122 660.777954,649.187561 650.861023,647.996338 
	C645.496094,647.351929 642.138550,642.549744 640.940613,634.986023 
	C638.979614,622.603821 640.368347,610.178650 640.124939,597.780579 
	C640.049805,593.953491 639.226624,592.283203 635.267273,592.974915 
	C634.297729,593.144348 633.273132,592.998352 632.273865,592.998596 
	C631.092163,592.998840 629.854553,593.123291 630.016235,591.290955 
	C630.148865,589.787537 631.257507,590.055786 632.191772,590.006165 
	C634.647949,589.875671 638.048096,590.710144 639.337646,589.422729 
	C641.198914,587.564453 639.761536,584.079285 639.997131,581.301575 
	C640.053223,580.640137 640.005493,579.969971 640.005554,579.303772 
	C640.005737,572.519409 640.008179,572.548096 646.746460,571.973389 
	C648.008728,571.865723 649.242615,571.426270 650.999695,571.022827 
	C650.999695,576.405701 651.109924,581.682251 650.949402,586.950562 
	C650.877747,589.303040 651.510742,590.193970 653.976929,590.050903 
	C657.462646,589.848572 660.970764,590.068665 664.465698,589.973206 
	C666.310791,589.922913 667.390686,590.344543 666.520264,592.703369 
z"/>
<path fill="#FAEEE2" opacity="1.000000" stroke="none" 
	d="
M607.796997,641.523132 
	C609.146729,639.571106 609.006592,637.752930 609.005066,635.949219 
	C608.995361,624.783325 609.015259,613.617432 608.992859,602.451538 
	C608.983582,597.810913 608.306274,593.533813 602.420471,593.020630 
	C600.461670,592.849854 601.129089,591.485474 601.020386,590.470215 
	C600.856079,588.935852 602.000427,589.086548 602.988342,588.995667 
	C608.059814,588.529175 613.148743,589.631592 618.271606,588.173584 
	C621.062866,587.379028 619.927551,590.415955 619.936462,591.688782 
	C620.037109,606.187073 620.052856,620.686646 619.970215,635.185120 
	C619.943359,639.902344 619.894409,644.369690 626.535095,644.011902 
	C627.578125,643.955688 627.952698,644.532288 627.993896,645.516968 
	C628.039124,646.595886 627.510376,646.985352 626.523621,646.985107 
	C618.524292,646.983521 610.525024,646.984619 602.525696,646.986145 
	C601.574463,646.986328 600.955750,646.685181 601.005310,645.566650 
	C601.047119,644.622192 601.330811,643.895142 602.402100,644.027039 
	C604.558044,644.292480 606.320129,643.710999 607.796997,641.523132 
z"/>
<path fill="#91AFAB" opacity="1.000000" stroke="none" 
	d="
M771.267578,725.616150 
	C772.682495,726.927307 773.124390,728.342712 773.698364,729.930542 
	C771.943298,729.587097 770.086670,731.018433 768.810852,728.648438 
	C768.169250,727.456604 766.886597,728.230164 765.739746,728.610840 
	C753.978638,732.514709 747.737488,728.670959 743.788757,720.284912 
	C739.277832,710.705017 744.139099,699.286865 751.501160,696.289795 
	C762.010864,692.011292 772.972839,696.547485 775.061951,710.946533 
	C775.862732,716.465576 772.892761,720.652039 771.267578,725.616150 
z"/>
<path fill="#91AFAB" opacity="1.000000" stroke="none" 
	d="
M546.211670,729.886475 
	C540.133484,729.980164 534.481445,729.913025 528.833618,730.035156 
	C526.694214,730.081421 525.939392,729.418274 525.961304,727.213806 
	C526.058899,717.409546 526.057312,707.603271 525.962280,697.799011 
	C525.941101,695.613159 526.661804,694.898438 528.821167,694.964233 
	C533.138062,695.095764 537.461853,694.999268 541.782776,695.001648 
	C549.378784,695.005798 552.848145,699.978516 550.178040,707.312134 
	C549.027344,710.472534 548.158142,712.839539 550.830444,716.231018 
	C554.405457,720.768066 552.108643,726.543091 546.211670,729.886475 
z"/>
<path fill="#90AFAB" opacity="1.000000" stroke="none" 
	d="
M720.000000,716.626099 
	C720.000000,710.351746 719.934448,704.529419 720.048401,698.710632 
	C720.075256,697.337097 719.000305,695.153015 721.877380,695.011780 
	C724.779114,694.869324 723.961426,697.016235 723.970337,698.466370 
	C724.027527,707.779602 724.041199,717.093811 723.950012,726.406494 
	C723.937927,727.641418 724.919617,729.596008 722.553345,729.953674 
	C720.854187,730.210571 719.705078,729.743347 718.474243,728.131409 
	C712.375977,720.144714 705.998413,712.371216 698.999512,703.622864 
	C698.999512,711.702209 699.064331,718.880310 698.946533,726.055481 
	C698.922058,727.545410 700.148376,730.084961 696.855835,729.972473 
	C693.981812,729.874268 695.063049,727.633667 695.049011,726.266785 
	C694.955322,717.120483 694.953308,707.972229 695.054199,698.826050 
	C695.068115,697.563538 694.010986,695.611023 696.221069,695.088562 
	C697.988647,694.670715 698.981934,695.578003 700.142578,697.163574 
	C705.930664,705.070496 712.021606,712.755920 718.025269,720.504395 
	C718.378113,720.959778 718.898804,721.285095 720.000000,722.245056 
	C720.000000,719.939331 720.000000,718.509399 720.000000,716.626099 
z"/>
<path fill="#91AFAB" opacity="1.000000" stroke="none" 
	d="
M588.224487,710.705200 
	C583.549194,702.718323 587.648376,695.161255 596.394958,695.033264 
	C600.295776,694.976135 604.290527,694.339783 607.866333,696.953491 
	C609.374268,698.055725 610.748230,698.918884 609.580322,700.824463 
	C608.406616,702.739258 607.339172,701.473450 605.988464,700.605103 
	C602.438354,698.322937 598.490601,697.787292 594.466003,699.271240 
	C592.421021,700.025208 590.735474,701.032898 590.913269,703.879822 
	C591.079041,706.535278 591.818298,708.299866 594.519714,709.010559 
	C598.115540,709.956543 601.737061,710.845520 605.257568,712.027039 
	C610.015015,713.623474 612.792542,718.199341 611.938843,722.575745 
	C611.097473,726.889099 607.116699,729.999878 602.224609,729.979919 
	C596.908630,729.958252 591.474304,730.786560 586.759094,727.033142 
	C585.041626,725.665955 584.864563,724.692261 585.992615,723.022400 
	C587.364014,720.992371 588.031494,722.864563 588.966125,723.448547 
	C593.192505,726.089722 597.763306,727.141174 602.637146,725.923340 
	C604.615112,725.429077 606.966614,724.994385 607.008728,722.059082 
	C607.050476,719.152771 605.879456,717.097046 603.115112,716.055176 
	C598.288513,714.235962 592.891724,714.062012 588.224487,710.705200 
z"/>
<path fill="#91AFAB" opacity="1.000000" stroke="none" 
	d="
M686.655151,695.544800 
	C686.601562,703.830688 688.154968,711.823730 685.985352,719.624207 
	C683.520020,728.488159 679.612244,730.644714 668.903503,730.010071 
	C663.760315,729.705322 659.197815,724.543640 657.915771,718.511597 
	C656.447083,711.600708 657.317627,704.683350 656.996399,697.777222 
	C656.918823,696.108521 657.117249,694.989990 659.316345,694.939087 
	C661.662109,694.884827 662.060791,695.899048 662.030396,697.912170 
	C661.940002,703.899780 661.827271,709.895630 662.040405,715.877014 
	C662.332031,724.059326 670.005005,729.058105 676.893494,725.396606 
	C682.093201,722.632751 682.622192,716.920776 682.944763,711.653015 
	C683.218750,707.178101 683.132629,702.667908 682.953857,698.183350 
	C682.845886,695.473816 683.785645,694.501282 686.655151,695.544800 
z"/>
<path fill="#90AFAB" opacity="1.000000" stroke="none" 
	d="
M578.716370,729.999390 
	C572.585327,729.999634 566.921204,729.862549 561.268738,730.058472 
	C558.567383,730.152100 557.912415,729.200439 557.948242,726.642700 
	C558.081299,717.156860 558.055359,707.667542 557.961853,698.180786 
	C557.939819,695.942383 558.392212,694.880615 560.944885,694.948730 
	C567.099182,695.112854 573.260925,694.984802 579.419312,695.020996 
	C580.483826,695.027283 581.946716,694.646912 581.945496,696.500916 
	C581.944275,698.354004 580.482117,697.968018 579.417358,697.978821 
	C575.090088,698.022705 570.758057,698.112854 566.436035,697.956604 
	C563.988770,697.868103 562.995483,698.403870 562.917603,701.183472 
	C562.642273,711.003174 562.514954,710.888123 572.287903,711.085327 
	C574.481262,711.129639 578.664246,709.681335 578.575562,712.354553 
	C578.458191,715.890808 574.305115,713.823853 572.055786,713.887695 
	C562.657593,714.154541 562.792297,713.998474 562.916931,723.546509 
	C562.955627,726.509521 563.979919,727.173218 566.667297,727.049988 
	C570.819763,726.859619 574.988159,726.960205 579.148254,727.030212 
	C580.164368,727.047302 581.696106,726.449646 581.898071,728.236572 
	C582.149658,730.462646 580.380737,729.846375 578.716370,729.999390 
z"/>
<path fill="#91AFAB" opacity="1.000000" stroke="none" 
	d="
M795.013184,729.998901 
	C787.123779,731.505127 781.326904,724.336670 781.052002,717.115112 
	C780.811951,710.808655 780.973877,704.485596 781.025146,698.170410 
	C781.035950,696.834412 780.411926,695.067078 782.916138,694.988953 
	C785.391846,694.911743 784.981201,696.577698 784.987732,698.004456 
	C785.012695,703.488892 784.738525,708.989990 785.083557,714.452759 
	C785.346436,718.615540 785.927429,722.719788 790.459045,725.163086 
	C798.638489,729.573425 805.567993,722.317688 805.952698,714.213257 
	C806.204529,708.906860 805.959778,703.578186 806.031799,698.260803 
	C806.049377,696.959473 805.311646,695.135071 807.825134,694.994751 
	C810.212708,694.861389 810.080811,696.405396 809.984619,697.914368 
	C809.513733,705.302246 811.210510,712.818848 809.000793,720.085266 
	C806.611816,727.941284 803.637817,729.978271 795.013184,729.998901 
z"/>
<path fill="#90AFAB" opacity="1.000000" stroke="none" 
	d="
M820.238403,695.009155 
	C826.542908,695.001709 832.368652,694.972717 838.193604,695.028259 
	C839.211365,695.037964 840.743042,694.477539 840.905273,696.278625 
	C841.106750,698.515808 839.324646,697.959229 838.144653,697.975525 
	C833.817932,698.035217 829.486877,698.098206 825.163757,697.961243 
	C822.901184,697.889526 822.045898,698.457275 821.926758,700.955200 
	C821.447449,711.005005 821.346069,710.828369 831.558044,711.126831 
	C833.957458,711.196960 838.388977,709.051575 838.533691,712.651428 
	C838.643921,715.394653 834.140015,713.376343 831.787170,713.994690 
	C831.631470,714.035583 831.455688,714.000000 831.289246,714.000000 
	C821.514343,714.000000 821.643921,713.996399 821.918579,723.816650 
	C821.996338,726.596252 822.990051,727.124084 825.436523,727.043884 
	C830.091797,726.891174 834.756042,726.978394 839.415955,727.020874 
	C840.479858,727.030579 841.941467,726.643738 841.946045,728.496399 
	C841.950684,730.352173 840.488586,729.973694 839.423584,729.979431 
	C833.099060,730.013550 826.774048,729.970520 820.449585,730.011353 
	C818.880676,730.021423 817.977112,729.661987 817.986206,727.824402 
	C818.037354,717.505310 818.016418,707.185913 818.010681,696.866577 
	C818.010010,695.671570 818.495544,694.989807 820.238403,695.009155 
z"/>
<path fill="#90AFAB" opacity="1.000000" stroke="none" 
	d="
M626.000061,725.784180 
	C625.999939,717.492493 625.865845,709.671265 626.067810,701.858765 
	C626.145386,698.860046 625.426331,697.577759 622.236328,697.947937 
	C619.938843,698.214355 617.584595,698.017456 615.256470,697.981934 
	C614.308838,697.967468 613.179932,698.129211 613.067627,696.673828 
	C612.925659,694.834778 614.266846,695.014648 615.403992,695.012817 
	C623.554382,694.999939 631.704834,695.001038 639.855225,695.015808 
	C640.835876,695.017578 641.895142,694.977356 641.956299,696.433228 
	C642.017639,697.895142 641.017517,697.951660 639.986877,697.988037 
	C639.488342,698.005676 638.988647,697.986084 638.489990,698.001343 
	C630.000000,698.261353 630.000061,698.261963 630.000000,706.605164 
	C629.999939,713.092224 630.071106,719.580688 629.942139,726.065186 
	C629.915039,727.430237 631.119324,729.662598 628.343201,729.960999 
	C625.153442,730.303955 626.217712,727.852722 626.000061,725.784180 
z"/>
<path fill="#FAEEE2" opacity="1.000000" stroke="none" 
	d="
M611.403870,576.987244 
	C605.938110,574.333313 604.488281,570.388550 606.968384,566.052551 
	C608.768311,562.905640 613.926270,561.896118 617.733276,563.945618 
	C621.103210,565.759827 622.112610,570.389038 620.006470,574.043518 
	C618.091736,577.365723 614.908691,577.005615 611.403870,576.987244 
z"/>
<path fill="#90AFAB" opacity="1.000000" stroke="none" 
	d="
M732.000122,710.004272 
	C732.001465,705.526855 732.068604,701.546814 731.975464,697.570557 
	C731.931396,695.689392 732.528748,694.949829 734.508911,694.948303 
	C736.508789,694.946838 737.033813,695.733521 737.022827,697.590027 
	C736.964172,707.535828 736.962585,717.482422 737.023560,727.428223 
	C737.035034,729.305969 736.470886,730.049011 734.490784,730.051758 
	C732.490967,730.054504 731.950439,729.269958 731.975769,727.411438 
	C732.052551,721.776306 732.001404,716.139465 732.000122,710.004272 
z"/>
<path fill="#000000" opacity="1.000000" stroke="none" 
	d="
M358.470795,678.014404 
	C358.515015,682.783081 354.212189,685.387268 352.458130,690.190247 
	C351.549042,685.981812 350.778992,682.417175 350.031189,678.440491 
	C352.711731,678.019897 355.370026,678.011292 358.470795,678.014404 
z"/>
<path fill="#91B0AC" opacity="1.000000" stroke="none" 
	d="
M366.192871,678.164795 
	C365.536621,674.708374 367.376251,672.798889 369.484009,671.067810 
	C371.411743,669.484558 373.375793,667.943970 375.357056,666.427917 
	C378.516357,664.010315 378.639709,661.202148 376.332367,658.211487 
	C373.389069,654.396484 370.358246,650.647766 367.313995,646.912231 
	C365.590729,644.797729 363.394958,643.072937 360.768005,642.553589 
	C357.555328,641.918518 354.817230,640.478455 352.225128,638.699768 
	C347.748932,635.628174 343.278076,635.506775 338.676117,638.287354 
	C336.295441,639.725830 333.580475,641.098145 331.420227,638.610901 
	C328.648712,635.419800 325.179840,632.080139 326.255646,627.297180 
	C327.008698,623.948975 330.172974,622.412842 333.302826,623.167297 
	C339.263275,624.604004 344.047668,623.712158 347.844971,618.565125 
	C349.277191,616.623840 351.731903,616.819275 353.890259,617.119080 
	C359.288910,617.868835 362.219055,614.688843 364.585632,610.582947 
	C366.821930,606.703064 366.284393,603.064331 363.896240,599.342957 
	C360.071991,593.383667 355.662109,588.081909 349.539398,584.334473 
	C348.204285,583.517273 346.011414,582.803345 346.413574,580.935669 
	C346.779663,579.235352 349.041260,579.232666 350.555969,578.689636 
	C356.071198,576.712463 361.853149,576.057129 367.615723,575.287048 
	C370.083252,574.957275 370.844025,576.185059 371.052368,578.368958 
	C371.603851,584.150024 372.286530,589.918518 372.846954,595.698730 
	C373.027893,597.565186 372.976288,599.829590 375.444183,599.742310 
	C378.202972,599.644836 378.087036,597.176025 377.982056,595.179749 
	C377.720581,590.207214 377.353149,585.240173 377.012054,580.271973 
	C376.765747,576.684692 378.528015,575.439575 381.893402,576.042725 
	C391.508606,577.765930 400.410004,581.195740 408.506439,586.761169 
	C411.010284,588.482300 410.859589,589.677368 408.931091,591.724304 
	C404.348236,596.588623 400.642242,602.123108 397.499054,608.013916 
	C394.241394,614.119324 396.174896,618.634155 402.896698,619.772766 
	C407.326324,620.523254 410.418365,622.518555 411.686279,626.753235 
	C412.944275,630.954773 410.888580,634.147705 407.833496,636.851135 
	C404.471008,639.826538 401.053680,642.746216 397.801727,645.838928 
	C392.464233,650.915161 392.474060,656.848206 397.751404,661.830322 
	C399.235840,663.231750 400.482941,664.720459 400.954590,666.751099 
	C403.098846,675.983398 403.099487,675.982727 412.684784,676.007568 
	C413.517090,676.009705 414.349365,676.026306 415.643768,676.069397 
	C416.352173,680.015991 413.228149,679.578674 411.020142,679.698914 
	C404.236755,680.068237 397.435883,679.826111 390.641937,679.847046 
	C384.676178,679.865479 378.710083,679.892090 372.744537,679.825195 
	C370.594910,679.801086 368.413269,679.833557 366.192871,678.164795 
z"/>
<path fill="#000000" opacity="1.000000" stroke="none" 
	d="
M365.552856,677.992004 
	C381.930328,677.844421 397.983826,677.918457 414.037323,677.983643 
	C414.844727,677.986938 415.720123,678.037903 416.032898,676.526123 
	C420.797974,675.844666 423.746063,673.050720 425.964508,669.253723 
	C426.528259,668.288818 426.748108,667.096619 427.406921,666.220032 
	C428.382080,664.922668 429.667816,663.131470 431.417999,664.223938 
	C433.133484,665.294861 431.519165,666.936523 430.941193,668.117126 
	C420.854004,688.724243 404.582489,702.106018 382.026337,705.724365 
	C356.493683,709.820190 335.516998,700.107666 319.057617,680.400757 
	C318.661163,679.926025 318.474823,679.275818 318.120880,678.369202 
	C319.672150,676.193115 321.911407,676.156677 324.036469,676.245667 
	C329.457764,676.472717 334.981171,675.204224 340.715820,677.514526 
	C345.079437,681.317627 345.198822,686.294556 345.953888,690.985229 
	C346.386810,693.674438 346.491730,696.535828 348.268860,698.647949 
	C350.811066,701.669312 355.776611,700.526855 357.097015,696.294006 
	C358.426727,692.031372 360.797150,688.607178 363.296814,685.080261 
	C364.664154,683.150940 365.091248,680.648010 365.552856,677.992004 
z"/>
<path fill="#92B0AC" opacity="1.000000" stroke="none" 
	d="
M427.280640,657.698853 
	C424.551910,661.238586 421.544159,664.038330 419.498657,667.767212 
	C417.320740,671.737427 412.914520,671.103760 409.129547,670.811768 
	C405.759216,670.551819 406.679901,667.306824 406.123596,665.338684 
	C405.316467,662.483276 403.849335,660.233643 401.777130,658.230225 
	C398.813721,655.365234 398.946930,652.349976 401.815552,649.596252 
	C405.168793,646.377319 408.842926,643.489563 412.155243,640.231750 
	C421.207520,631.328430 418.047791,618.235413 405.853180,614.975891 
	C401.271423,613.751221 400.550232,612.291931 403.243042,608.522217 
	C406.426880,604.065186 409.361267,599.457825 412.888153,595.217834 
	C415.260345,592.365967 416.622681,592.980225 418.688080,595.226746 
	C430.132599,607.674988 436.961456,622.010986 436.934448,639.657166 
	C434.835907,646.463928 431.857330,652.319885 427.280640,657.698853 
z"/>
<path fill="#92B0AC" opacity="1.000000" stroke="none" 
	d="
M341.097748,677.421631 
	C333.758331,677.842102 326.370422,677.921875 318.516907,678.016296 
	C311.491272,671.974731 309.604187,663.613831 307.191711,655.579834 
	C305.753387,650.789795 305.905853,645.738708 305.771576,640.753296 
	C305.652100,636.316345 307.837891,636.597107 310.786926,637.994141 
	C312.190796,638.659241 313.073120,639.835938 314.026276,641.009277 
	C317.589935,645.396057 321.154266,649.788330 326.890656,651.580811 
	C329.550903,652.412170 330.935760,654.674316 331.420166,657.140198 
	C332.897461,664.660706 336.350006,671.154114 341.097748,677.421631 
z"/>
<path fill="#93B1AD" opacity="1.000000" stroke="none" 
	d="
M357.292664,539.686157 
	C358.238983,541.406250 359.006805,542.816528 359.882233,544.424438 
	C346.094177,542.478088 334.882874,529.830627 333.108704,514.663330 
	C332.531067,509.725189 331.974030,504.780182 331.200439,499.870941 
	C330.703949,496.719971 331.646667,496.076385 334.618378,496.998016 
	C347.428131,500.970612 355.124054,510.086914 359.812500,522.088440 
	C361.670258,526.843872 363.347656,531.764832 362.783722,538.055115 
	C358.265015,531.642700 354.228241,525.891968 350.163696,520.160889 
	C349.054291,518.596497 348.088531,516.171753 345.598053,517.884888 
	C342.915436,519.730286 344.846832,521.667480 346.038361,523.402405 
	C349.706665,528.743225 353.418945,534.053894 357.292664,539.686157 
z"/>
<path fill="#93B1AD" opacity="1.000000" stroke="none" 
	d="
M409.701843,549.806885 
	C404.030762,553.526672 398.141846,554.643433 390.443970,553.807312 
	C394.652069,549.839722 398.164246,546.497803 401.711975,543.194092 
	C404.020782,541.044189 406.418152,538.988464 408.704529,536.815552 
	C409.990265,535.593567 410.907990,533.989807 409.406586,532.480652 
	C408.148468,531.216003 406.606567,531.877563 405.396637,532.950562 
	C400.177765,537.578796 394.981354,542.232361 389.769165,546.868103 
	C389.169678,547.401367 388.522827,547.881287 387.740997,548.512695 
	C387.804443,537.776550 393.390717,528.148865 402.288330,524.382996 
	C409.311249,521.410583 416.658417,519.210510 423.824036,516.565674 
	C426.482880,515.584229 427.304504,516.645020 426.837463,519.046387 
	C424.507904,531.024597 420.746399,542.241211 409.701843,549.806885 
z"/>
<path fill="#000000" opacity="1.000000" stroke="none" 
	d="
M427.443848,657.970581 
	C429.246033,651.629089 433.477844,646.362183 436.573059,640.221802 
	C437.726135,644.589661 436.139191,648.879578 435.826019,653.269592 
	C435.468597,658.280457 430.749664,656.778015 427.443848,657.970581 
z"/>
<path fill="#000000" opacity="1.000000" stroke="none" 
	d="
M762.461304,531.989380 
	C753.654907,528.762329 755.032410,517.213684 761.574768,513.217346 
	C766.014954,510.505157 770.893127,508.510071 776.001221,505.983673 
	C776.001221,510.586151 776.001282,514.667603 776.001221,518.749084 
	C776.001160,528.503052 772.530273,532.007690 762.461304,531.989380 
z"/>
<path fill="#000000" opacity="1.000000" stroke="none" 
	d="
M703.000000,629.746338 
	C702.936768,638.520264 696.296204,643.838318 688.292419,641.986877 
	C683.060242,640.776550 681.151917,631.123901 685.215698,626.275452 
	C687.661438,623.357361 690.714722,621.321045 694.280396,619.936584 
	C697.049255,618.861511 699.934326,617.984314 703.000000,615.006897 
	C703.000000,620.533691 703.000000,624.909058 703.000000,629.746338 
z"/>
<path fill="#000000" opacity="1.000000" stroke="none" 
	d="
M625.000000,514.067566 
	C624.749084,519.802063 626.351135,525.415466 621.093567,529.530640 
	C617.251770,532.537659 610.601379,533.153137 607.708130,530.210815 
	C604.307800,526.752686 604.068604,520.249512 607.390198,516.054321 
	C610.006653,512.749634 613.604553,510.782196 617.366638,509.395081 
	C619.783386,508.503998 621.992493,507.398102 625.000000,505.217163 
	C625.000000,508.570557 625.000000,511.081299 625.000000,514.067566 
z"/>
<path fill="#000000" opacity="1.000000" stroke="none" 
	d="
M768.810547,719.472473 
	C766.098328,722.006409 764.305176,716.216919 761.546692,720.177673 
	C761.624878,719.424500 761.465820,719.810852 761.588562,719.951721 
	C762.839294,721.387146 765.242615,723.207031 764.278503,724.610657 
	C763.041565,726.411438 760.050354,726.668823 757.693665,726.353455 
	C747.372437,724.972290 744.371826,712.710266 748.351318,705.467407 
	C752.266602,698.341492 758.282776,697.189941 763.051392,699.485107 
	C768.726013,702.216370 772.041199,710.017029 769.994995,716.419495 
	C769.701843,717.336731 769.312866,718.223450 768.810547,719.472473 
z"/>
<path fill="#000000" opacity="1.000000" stroke="none" 
	d="
M543.667358,714.887695 
	C546.562134,716.751343 549.230103,718.854431 547.779114,722.130127 
	C546.340027,725.379211 543.360596,727.039185 539.445862,727.056335 
	C529.283569,727.100891 528.895508,726.744934 529.968079,716.482422 
	C530.122620,715.003479 530.237671,713.822205 532.102722,714.014465 
	C535.816895,714.397095 539.643982,713.096985 543.667358,714.887695 
z"/>
<path fill="#000000" opacity="1.000000" stroke="none" 
	d="
M529.998535,705.928162 
	C530.330383,703.054199 528.773071,699.273071 530.775513,698.511597 
	C534.144592,697.230469 538.231384,697.438721 541.913818,698.495850 
	C544.826904,699.332092 546.925598,701.678345 546.807800,704.534241 
	C546.696045,707.242493 544.964844,709.300537 541.723206,710.291809 
	C538.399841,711.308044 535.209045,710.900574 531.983826,710.915405 
	C528.502930,710.931396 530.616028,707.952209 529.998535,705.928162 
z"/>
</svg>