<?xml version="1.0" standalone="no"?>
<!DOCTYPE svg PUBLIC "-//W3C//DTD SVG 20010904//EN"
 "http://www.w3.org/TR/2001/REC-SVG-20010904/DTD/svg10.dtd">
<svg version="1.0" xmlns="http://www.w3.org/2000/svg"
 width="1800.000000pt" height="4000.000000pt" viewBox="0 0 1800.000000 4000.000000"
 preserveAspectRatio="xMidYMid meet">

<g transform="translate(0.000000,4000.000000) scale(0.100000,-0.100000)"
fill="#000000" stroke="none">
<path d="M8255 29389 c-159 -8 -245 -16 -390 -38 -33 -5 -103 -14 -155 -21
-52 -6 -108 -15 -125 -20 -16 -5 -52 -11 -80 -13 -27 -3 -57 -8 -65 -11 -17
-6 -43 -12 -145 -31 -96 -19 -177 -40 -203 -54 -11 -6 -32 -11 -46 -11 -14 0
-28 -4 -31 -10 -3 -5 -15 -10 -27 -10 -11 0 -73 -18 -137 -39 -64 -22 -143
-43 -176 -46 -33 -4 -73 -13 -89 -21 -16 -8 -37 -14 -47 -14 -10 0 -21 -4 -24
-10 -3 -5 -13 -10 -22 -10 -14 0 -35 -8 -108 -41 -16 -7 -43 -14 -58 -15 -16
-1 -34 -9 -40 -16 -14 -16 -70 -35 -111 -37 -16 0 -35 -6 -42 -12 -10 -8 -18
-7 -29 5 -9 9 -24 16 -33 16 -29 -1 -77 -53 -79 -85 -3 -36 -56 -85 -91 -85
-13 0 -53 -16 -88 -35 -91 -48 -135 -101 -149 -177 -6 -34 -4 -40 39 -82 25
-25 51 -46 57 -46 7 0 20 -6 28 -13 18 -16 195 -85 291 -115 61 -19 282 -67
415 -91 126 -22 523 -49 840 -56 127 -3 246 -8 265 -11 37 -5 500 18 720 37
251 21 407 39 495 58 50 11 113 22 140 26 28 3 92 12 143 21 52 8 124 19 160
24 37 5 78 12 92 14 14 2 50 7 80 11 30 3 82 13 115 20 33 8 116 26 185 40
293 60 461 100 600 142 370 112 582 202 710 304 51 40 52 42 46 82 -11 65 -35
95 -118 143 -43 25 -78 51 -78 58 0 14 -152 86 -184 86 -34 0 -199 36 -275 59
-35 11 -68 18 -72 15 -5 -3 -35 2 -68 11 -32 8 -100 15 -150 15 -61 0 -99 5
-114 14 -12 7 -60 16 -107 20 -47 3 -122 12 -167 20 -80 15 -401 25 -963 31
-129 1 -264 5 -300 8 -36 3 -141 1 -235 -4z"/>
<path d="M11560 28889 c-12 -21 -5 -75 11 -84 13 -9 69 -127 57 -123 -5 2 -19
21 -31 43 -12 22 -26 43 -32 47 -20 15 -60 8 -73 -12 -7 -11 -16 -20 -22 -20
-5 0 -33 -11 -62 -24 -29 -13 -63 -27 -74 -30 -12 -4 -29 -15 -39 -26 -10 -11
-24 -20 -32 -20 -8 0 -27 -7 -43 -15 -16 -8 -42 -16 -57 -17 -15 -1 -32 -8
-38 -15 -10 -12 -141 -53 -181 -56 -11 -1 -28 -8 -37 -15 -9 -8 -21 -11 -26
-8 -5 4 -12 2 -16 -4 -3 -5 -17 -10 -30 -10 -13 0 -31 -7 -39 -16 -9 -8 -20
-13 -25 -10 -5 4 -15 -7 -22 -22 -12 -27 -15 -29 -51 -20 -29 6 -44 4 -62 -7
-12 -8 -25 -12 -29 -9 -4 4 -18 -1 -32 -10 -22 -14 -29 -15 -42 -4 -14 11 -15
10 -8 -11 7 -22 5 -23 -19 -19 -16 3 -33 0 -41 -8 -11 -11 -14 -11 -18 0 -4
11 -15 9 -54 -10 -42 -20 -49 -21 -59 -8 -7 8 -19 12 -28 8 -19 -7 -22 -34 -3
-35 18 -1 -25 -17 -60 -22 -17 -3 -40 -10 -53 -17 -18 -10 -24 -9 -30 0 -6 9
-22 11 -56 6 -66 -9 -76 -11 -98 -21 -12 -5 -21 -3 -26 5 -7 11 -11 11 -24 1
-9 -8 -16 -10 -16 -7 0 4 -9 2 -19 -4 -14 -7 -22 -7 -26 0 -5 8 -11 7 -21 -1
-7 -6 -20 -9 -29 -6 -8 4 -17 2 -21 -4 -3 -5 -14 -7 -25 -4 -10 4 -24 3 -31
-1 -7 -4 -25 -9 -42 -11 -16 -2 -35 -8 -41 -13 -7 -6 -19 -8 -28 -4 -8 3 -24
1 -34 -4 -11 -7 -25 -7 -35 -1 -19 11 -56 0 -38 -11 8 -5 7 -9 -4 -13 -9 -4
-16 -2 -16 4 0 6 -6 6 -18 0 -10 -5 -24 -6 -32 -1 -22 11 -52 6 -80 -13 -13
-9 -27 -14 -32 -11 -5 3 -16 0 -24 -7 -12 -10 -17 -10 -23 -1 -11 18 -72 7
-88 -14 -11 -15 -16 -16 -22 -6 -5 9 -15 10 -32 5 -13 -5 -37 -8 -54 -7 -16 0
-35 -5 -42 -12 -11 -10 -19 -9 -45 4 -28 14 -88 24 -88 14 0 -2 5 -12 10 -23
7 -13 7 -19 0 -19 -5 0 -10 6 -10 13 0 7 -17 23 -39 34 -32 17 -47 19 -87 12
-27 -4 -81 -13 -121 -20 -39 -6 -81 -9 -92 -6 -12 3 -35 -1 -50 -9 -25 -12
-75 -24 -116 -27 -6 0 -23 3 -39 7 -26 6 -28 5 -23 -15 7 -25 -8 -49 -29 -49
-8 0 -14 11 -14 26 0 19 -4 25 -17 22 -13 -2 -17 -11 -15 -31 4 -28 -15 -38
-24 -12 -5 11 -10 12 -26 4 -11 -6 -17 -17 -14 -24 2 -7 -3 -20 -13 -29 -19
-18 -33 -12 -24 10 4 10 0 12 -13 8 -11 -4 -25 -11 -31 -17 -7 -5 -24 -7 -38
-5 -17 4 -29 0 -34 -10 -8 -14 -12 -14 -25 -3 -12 10 -16 11 -16 1 0 -10 -3
-10 -14 -1 -19 16 -56 -2 -56 -26 0 -14 -2 -14 -20 2 -18 16 -23 16 -67 2 -50
-16 -84 -18 -94 -4 -12 17 -238 24 -249 8 -15 -23 -77 -29 -317 -31 -117 -2
-143 -5 -148 -17 -5 -14 -8 -14 -24 1 -16 15 -22 15 -39 5 -17 -10 -28 -10
-60 3 -29 11 -43 13 -51 5 -8 -8 -11 -6 -11 5 0 9 -9 20 -20 23 -11 3 -20 13
-20 21 0 8 -10 14 -25 14 -14 0 -45 5 -70 12 -39 10 -53 10 -100 -7 -30 -10
-73 -18 -96 -17 -24 1 -38 -2 -34 -8 3 -6 21 -10 38 -11 32 0 32 0 7 -10 -14
-6 -40 -9 -57 -7 -18 2 -33 0 -33 -5 0 -5 -8 -6 -17 -2 -10 4 -38 9 -62 11
-25 3 -50 9 -57 15 -7 6 -19 7 -25 3 -9 -5 -10 -2 -6 9 3 9 2 19 -3 22 -6 4
-10 -1 -10 -9 0 -10 -9 -16 -22 -17 -57 -3 -99 8 -70 18 20 8 14 23 -10 23
-13 0 -36 7 -51 15 -15 8 -34 12 -41 9 -8 -3 -16 3 -18 14 -5 17 -16 19 -105
20 -75 2 -104 -2 -112 -12 -12 -14 -52 -14 -85 -1 -10 4 -21 4 -25 -1 -13 -18
-51 -34 -67 -27 -14 5 -13 8 7 23 21 17 22 19 6 35 -9 9 -17 22 -17 29 0 18
-43 56 -63 56 -9 0 -17 -6 -17 -14 0 -8 -7 -16 -15 -20 -8 -3 -15 -1 -15 4 0
6 -4 10 -10 10 -5 0 -10 -5 -10 -11 0 -7 -7 -17 -16 -24 -14 -9 -14 -16 -5
-33 9 -17 9 -22 -1 -23 -7 -1 -20 -3 -28 -4 -8 -1 -21 -3 -27 -4 -8 0 -13 -16
-13 -38 0 -64 -8 -81 -37 -75 -23 4 -24 7 -19 60 3 30 11 59 17 63 7 4 9 14 6
22 -8 22 23 30 43 12 26 -24 33 -2 9 24 -16 17 -20 30 -15 52 3 16 1 29 -4 29
-5 0 -12 9 -15 21 -10 31 -35 5 -35 -37 0 -36 -17 -55 -26 -30 -4 9 0 24 7 33
13 15 12 15 -8 4 -13 -6 -23 -8 -24 -4 0 4 -5 -3 -11 -17 -6 -14 -10 -31 -9
-38 1 -6 -9 -16 -22 -21 -19 -7 -23 -16 -22 -40 1 -25 -2 -31 -19 -31 -18 0
-19 -2 -6 -11 12 -8 12 -12 2 -16 -10 -4 -10 -8 -1 -19 6 -8 7 -14 2 -14 -10
0 -14 -22 -16 -98 -2 -46 -4 -52 -24 -52 -18 0 -22 -7 -25 -51 -1 -28 0 -53 5
-56 4 -2 5 -7 3 -11 -2 -4 -1 -27 4 -51 7 -38 5 -44 -11 -48 -10 -3 -17 -9
-14 -13 2 -4 -2 -41 -9 -81 -23 -125 -29 -208 -16 -224 8 -10 10 -28 5 -52 -4
-21 -9 -79 -10 -130 -2 -51 -6 -97 -10 -104 -4 -6 -2 -15 5 -19 13 -8 20 -32
23 -80 2 -18 -3 -25 -17 -25 -11 0 -21 -6 -23 -12 -3 -7 2 -13 9 -13 12 0 14
-29 14 -157 0 -87 4 -179 8 -205 8 -43 7 -48 -10 -49 -18 0 -18 -1 1 -9 17 -7
17 -9 3 -9 -22 -1 -23 -15 -2 -46 13 -20 14 -30 5 -58 -8 -23 -9 -48 -2 -76 5
-22 5 -39 1 -36 -14 8 -14 -29 -6 -305 18 -549 18 -580 2 -580 -9 0 -20 9 -26
20 -6 11 -14 20 -19 20 -12 0 -13 -556 -1 -661 6 -52 13 -170 15 -264 3 -93 8
-197 11 -230 4 -33 7 -70 7 -82 -1 -13 3 -23 8 -23 4 0 8 -37 8 -82 0 -46 2
-159 6 -253 4 -93 8 -228 10 -300 6 -218 57 -611 77 -599 11 7 -1 192 -13 216
-5 9 -12 48 -15 87 -6 61 -4 71 10 77 9 4 20 4 23 1 3 -4 7 -50 10 -104 2 -54
10 -134 18 -179 20 -110 20 -174 -1 -174 -21 0 -13 -23 13 -35 17 -7 24 -24
32 -70 14 -79 14 -77 -9 -70 -22 7 -27 -10 -9 -35 8 -11 12 -12 16 -2 14 34
26 -1 47 -135 6 -37 -9 -45 -19 -10 -18 69 -29 97 -38 97 -11 0 1 -92 18 -140
7 -19 21 -69 30 -110 9 -41 21 -93 26 -115 6 -22 14 -56 18 -75 10 -49 52
-132 76 -151 16 -14 17 -19 7 -32 -18 -21 -9 -57 108 -422 85 -266 148 -410
247 -563 29 -45 53 -85 53 -89 0 -6 46 -64 90 -113 l22 -25 -6 25 c-14 48 -39
125 -51 155 -7 17 -16 50 -20 75 -4 25 -10 50 -13 55 -4 6 -8 21 -9 35 -3 21
-1 20 12 -9 8 -18 15 -40 15 -47 0 -8 4 -22 9 -32 5 -9 18 -38 28 -64 10 -27
21 -48 26 -48 4 0 7 -9 7 -19 0 -11 7 -26 15 -35 8 -8 15 -21 15 -28 0 -20 43
-64 48 -49 5 16 37 -27 46 -62 5 -22 4 -27 -6 -21 -7 5 -20 9 -30 9 -12 1 -8
-7 15 -32 18 -19 31 -39 29 -44 -1 -5 11 -3 28 6 29 15 32 15 65 -12 19 -15
35 -33 35 -40 0 -15 62 -63 81 -63 8 0 21 -15 30 -32 25 -52 41 -47 23 9 -28
89 -64 222 -63 230 1 4 -1 16 -5 25 -9 21 5 70 22 76 15 5 16 -30 1 -45 -9 -9
-8 -16 5 -28 9 -9 16 -24 16 -33 0 -9 7 -30 15 -46 8 -15 15 -36 15 -45 1 -30
68 -181 99 -219 20 -26 29 -49 29 -70 -1 -22 7 -39 25 -56 15 -14 27 -33 27
-43 0 -22 61 -93 81 -94 8 0 6 -4 -6 -9 -11 -5 -14 -9 -7 -9 6 -1 12 -6 12
-11 0 -13 97 -111 131 -133 15 -9 29 -13 32 -10 8 7 -37 96 -57 112 -8 7 -18
27 -22 44 -3 18 -10 37 -14 42 -4 6 -12 29 -17 52 -9 34 -8 40 3 36 8 -3 14
-9 14 -15 0 -5 15 -15 33 -23 53 -22 78 -57 161 -220 34 -67 65 -109 118 -163
40 -41 81 -78 91 -83 33 -19 19 -32 -28 -25 -25 4 -45 4 -46 -1 0 -4 -3 -20
-5 -35 -3 -18 10 -54 42 -115 106 -200 115 -223 131 -323 3 -19 21 -69 40
-110 20 -41 39 -97 43 -125 4 -27 21 -81 39 -118 17 -38 31 -75 31 -82 0 -21
50 -110 131 -235 42 -63 81 -131 88 -150 7 -19 20 -49 27 -67 8 -17 14 -34 14
-39 0 -4 13 -34 29 -68 38 -79 100 -146 135 -146 27 0 92 -27 114 -47 42 -40
-27 -208 -132 -317 -52 -54 -95 -114 -112 -154 -19 -45 -54 -197 -54 -233 0
-15 -11 -52 -24 -81 -25 -56 -61 -88 -185 -164 -35 -21 -80 -53 -100 -70 -20
-17 -55 -43 -79 -58 -24 -15 -45 -33 -49 -41 -3 -8 -13 -15 -23 -15 -11 0 -22
-5 -25 -10 -8 -13 -72 -11 -100 3 -11 5 -38 29 -61 53 -38 40 -43 43 -80 37
-77 -12 -219 -99 -269 -166 -16 -21 -44 -58 -61 -82 -41 -55 -82 -152 -101
-240 -20 -97 -4 -270 45 -475 20 -85 39 -157 42 -160 3 -3 16 -39 29 -80 13
-41 27 -79 31 -85 4 -5 10 -21 13 -35 17 -79 130 -316 174 -367 16 -17 35 -39
44 -50 69 -79 274 -218 339 -229 19 -4 40 -9 45 -13 6 -3 16 -6 24 -8 8 -1 26
-5 40 -9 14 -4 32 -6 39 -5 7 1 11 -4 10 -11 -2 -7 7 -14 19 -16 12 -2 23 -11
25 -20 2 -9 12 -17 23 -17 11 0 19 -6 18 -12 -2 -7 2 -13 9 -13 6 0 32 -17 57
-38 79 -67 341 -223 463 -277 40 -18 103 -46 139 -63 87 -40 152 -54 279 -59
100 -4 138 1 280 37 19 5 63 19 98 32 60 22 79 38 45 38 -9 0 -30 4 -47 9 -17
5 -62 18 -101 30 -38 11 -81 23 -95 27 -14 3 -32 12 -40 18 -8 6 -29 19 -46
28 -17 10 -49 34 -70 55 -53 51 -114 103 -114 96 0 -3 -16 9 -36 27 -20 17
-66 45 -103 61 -36 17 -74 38 -83 46 -10 9 -18 13 -18 10 0 -17 -208 75 -359
159 -48 26 -98 80 -156 166 -27 40 -59 86 -72 101 -13 16 -23 35 -23 43 0 8
-9 24 -20 36 -11 12 -20 29 -20 37 0 9 -22 61 -49 117 -27 56 -52 112 -56 125
-4 13 -12 30 -17 36 -19 24 -21 136 -3 223 9 47 20 90 24 95 5 6 16 30 25 55
31 79 48 112 115 220 61 98 78 122 168 225 56 65 83 100 83 107 0 3 18 26 40
49 22 24 40 47 40 52 0 5 13 21 29 37 15 16 35 44 44 63 9 19 23 39 31 46 7 6
27 39 44 74 17 34 44 76 59 93 15 18 39 46 53 63 25 32 93 71 122 71 9 0 24
-20 37 -49 11 -27 24 -51 29 -53 4 -1 25 -25 47 -53 22 -27 72 -81 110 -120
124 -123 212 -254 348 -515 27 -52 65 -124 85 -160 19 -36 53 -100 75 -142 22
-43 43 -78 48 -78 5 0 9 -4 9 -9 0 -9 79 -183 107 -236 28 -52 31 -58 58 -150
14 -49 31 -103 37 -120 19 -52 28 -152 38 -410 5 -137 11 -261 14 -275 3 -14
13 -77 22 -140 12 -78 23 -122 36 -136 10 -11 18 -28 18 -38 0 -10 9 -20 20
-23 10 -3 22 -14 25 -24 4 -10 9 -18 13 -18 20 3 25 -2 12 -11 -12 -8 -11 -10
8 -10 15 0 26 -9 32 -25 5 -14 17 -25 25 -25 9 0 18 -7 22 -16 3 -8 16 -20 29
-25 13 -4 24 -16 24 -24 0 -9 4 -14 9 -11 4 3 13 -6 19 -19 7 -14 18 -25 27
-25 8 0 15 -7 15 -15 0 -8 9 -20 20 -27 11 -7 20 -19 20 -26 0 -7 7 -26 15
-42 12 -23 13 -30 3 -30 -8 -1 -7 -5 5 -14 9 -7 17 -20 17 -29 0 -9 4 -18 9
-21 4 -3 6 -17 4 -30 -3 -14 5 -47 20 -78 17 -37 23 -63 20 -87 -4 -22 -2 -32
5 -27 6 3 12 -9 15 -32 25 -197 30 -217 51 -235 l21 -19 10 49 c6 26 18 59 27
73 9 14 19 44 22 68 2 24 9 48 14 55 5 7 19 44 30 82 25 86 41 134 55 160 6
11 14 36 18 55 17 78 42 167 55 192 8 14 14 34 14 45 0 23 81 186 120 239 16
23 48 58 71 79 49 44 89 114 89 156 0 16 -9 46 -20 66 -24 46 -87 113 -105
113 -8 0 -18 8 -24 17 -5 10 -12 15 -15 12 -4 -3 -28 15 -55 40 -26 25 -69 64
-95 86 -40 35 -55 55 -95 125 -35 63 -118 270 -127 317 -4 19 -17 65 -31 101
-13 37 -32 92 -42 122 -11 30 -26 69 -35 85 -9 17 -16 35 -16 42 0 6 -6 18
-14 25 -15 16 -83 133 -92 161 -4 9 -10 17 -15 17 -5 0 -9 5 -9 11 0 6 -13 31
-30 56 -16 24 -30 48 -30 53 0 4 -4 10 -9 12 -4 2 -27 37 -50 78 -41 73 -101
161 -141 208 -11 12 -20 25 -20 30 0 4 -15 23 -33 43 -17 20 -39 47 -47 59 -8
13 -25 35 -37 50 -12 15 -20 30 -16 34 3 3 1 6 -5 6 -6 0 -17 12 -25 28 -8 15
-35 66 -60 114 -26 49 -47 89 -46 90 0 2 -5 17 -11 33 -26 66 -52 142 -61 180
-5 22 -13 51 -18 65 -5 14 -14 52 -21 85 -23 107 -70 247 -107 318 -8 15 -11
27 -7 27 5 0 3 5 -3 11 -12 12 -71 -9 -103 -37 -13 -11 -19 -10 -39 5 -22 17
-22 20 -10 62 7 24 16 46 19 49 9 8 29 80 22 79 -4 0 -16 -4 -27 -8 -14 -6
-38 1 -80 23 -33 17 -67 32 -75 34 -26 6 -38 22 -33 42 4 14 -1 22 -17 28 -16
6 -29 28 -46 77 -13 38 -24 80 -24 94 0 16 -8 31 -20 39 -32 19 -43 58 -25 85
24 37 55 137 55 176 0 35 -20 102 -40 139 -5 9 -28 61 -51 115 -32 73 -56 113
-95 155 -30 31 -54 61 -54 65 0 5 -12 21 -27 37 -53 55 -98 123 -95 144 2 17
1 18 -7 6 -11 -16 -12 -13 -15 35 -1 24 -5 30 -25 30 -17 0 -29 12 -47 45 -29
53 -98 126 -139 145 -16 8 -64 23 -106 34 -102 27 -116 33 -210 87 -45 26 -98
53 -118 60 -29 10 -36 17 -37 40 -1 15 -6 30 -13 32 -6 2 -9 8 -5 13 3 5 -3 9
-14 9 -10 0 -33 15 -50 34 -17 19 -39 37 -50 40 -21 7 -56 51 -66 83 -4 12
-16 25 -27 28 -10 4 -19 14 -19 22 0 9 -8 25 -17 35 -13 14 -14 21 -5 30 19
19 14 44 -10 62 -22 15 -22 16 -5 26 16 10 15 13 -15 34 -23 15 -33 30 -34 50
-1 15 -7 32 -14 36 -22 13 10 86 36 82 27 -5 31 -12 14 -22 -11 -7 -12 -12 -4
-20 12 -12 41 -4 47 13 2 7 3 4 1 -7 -3 -19 17 -46 34 -46 12 0 21 -59 10 -66
-4 -3 -8 -25 -8 -50 0 -24 -4 -44 -10 -44 -5 0 -10 -5 -10 -11 0 -6 8 -8 19
-4 16 5 21 -1 26 -27 5 -21 4 -33 -4 -36 -6 -2 -1 -12 13 -23 13 -11 27 -32
31 -48 3 -16 15 -37 26 -47 10 -9 19 -23 19 -31 0 -8 5 -11 10 -8 6 4 27 -7
48 -23 20 -16 49 -32 65 -36 23 -5 29 -3 37 18 5 13 14 27 19 31 6 3 11 24 11
46 0 43 4 46 26 24 19 -19 44 -19 44 -1 0 23 18 29 40 13 19 -13 19 -14 -5
-27 -19 -10 -24 -19 -19 -34 9 -27 24 -37 47 -32 15 4 18 0 14 -14 -3 -11 1
-21 9 -24 17 -6 18 -38 3 -53 -21 -21 1 -49 58 -76 32 -15 64 -27 70 -27 7 0
35 -16 62 -35 26 -19 53 -35 59 -35 11 0 38 -40 35 -51 -3 -9 79 -94 92 -95
10 -1 45 -16 140 -59 28 -13 64 -27 80 -31 17 -4 47 -16 67 -26 36 -19 37 -21
31 -63 -5 -40 -2 -48 42 -109 47 -67 78 -93 104 -87 9 2 12 -3 7 -15 -6 -14
-4 -15 10 -3 14 11 16 10 12 -11 -2 -15 -14 -30 -30 -38 -32 -15 -45 -62 -29
-104 5 -15 42 -82 82 -150 40 -68 94 -166 122 -218 27 -52 57 -100 66 -107 9
-7 58 -33 109 -58 87 -42 122 -53 180 -54 13 -1 35 -14 50 -30 49 -56 96 -29
283 164 159 166 254 282 286 351 26 57 27 64 23 194 -2 74 -4 174 -4 221 0 72
-3 86 -16 84 -15 -2 -38 -54 -39 -87 -1 -10 -13 -25 -28 -35 -16 -9 -36 -25
-46 -35 -21 -22 -31 -22 -46 -4 -9 11 -8 23 5 55 9 23 20 41 25 41 14 0 11 60
-3 61 -28 3 -44 -3 -59 -21 -18 -21 -71 -31 -78 -15 -3 6 4 12 15 14 10 2 32
14 47 27 16 13 37 24 48 24 11 0 40 15 65 34 25 19 59 38 77 41 18 4 39 14 48
21 13 12 103 41 309 98 25 7 64 23 87 34 23 12 56 22 73 22 16 0 30 5 30 11 0
5 4 8 8 5 20 -12 129 26 397 138 132 55 283 163 439 313 61 58 134 123 162
144 76 56 254 241 335 349 97 129 153 216 240 370 23 41 57 100 75 130 44 73
142 300 161 375 8 33 46 121 84 195 65 130 128 286 182 455 14 44 40 118 58
165 18 47 34 110 37 140 2 32 12 64 22 78 25 31 63 150 95 294 14 65 28 123
30 130 6 17 38 212 64 398 11 75 32 280 51 485 35 390 37 1061 5 1510 -8 116
-17 242 -20 280 -9 126 -26 239 -42 275 -9 20 -19 88 -24 160 -5 69 -16 166
-24 215 -19 113 -44 273 -55 345 -5 30 -13 69 -18 85 -5 17 -18 68 -27 115
-10 47 -25 112 -33 145 -9 33 -19 87 -23 120 -5 33 -12 85 -18 115 -5 30 -14
82 -20 115 -26 151 -104 476 -152 630 -18 55 -67 206 -111 335 -44 129 -98
289 -120 355 -113 336 -121 353 -183 408 -29 26 -56 47 -59 47 -3 0 -10 -9
-16 -21z m-2844 -800 c3 -6 1 -16 -6 -22 -10 -9 -14 -9 -17 1 -3 6 -14 12 -26
12 -18 0 -19 2 -7 10 20 13 47 13 56 -1z m-143 -10 c9 0 17 -4 17 -10 0 -5
-10 -8 -22 -8 -13 0 -38 -2 -55 -6 -22 -4 -40 -1 -55 9 -25 18 -7 22 23 6 11
-6 19 -7 18 -3 -3 18 2 21 29 17 15 -3 35 -5 45 -5z m-143 -19 c0 -5 -2 -10
-4 -10 -3 0 -8 5 -11 10 -3 6 -1 10 4 10 6 0 11 -4 11 -10z m-2880 -27 c0 -5
-8 -17 -17 -28 -14 -18 -15 -18 -9 -2 3 10 6 23 6 28 0 5 5 9 10 9 6 0 10 -3
10 -7z m220 -24 c0 -5 -4 -9 -10 -9 -5 0 -10 7 -10 16 0 8 5 12 10 9 6 -3 10
-10 10 -16z m-335 -88 c-3 -5 -1 -12 4 -15 11 -7 8 -40 -13 -162 -9 -51 -14
-99 -10 -107 3 -8 1 -18 -5 -22 -6 -3 -11 -19 -11 -36 0 -19 -5 -29 -15 -29
-8 0 -18 -12 -21 -27 -4 -16 -11 -34 -17 -40 -6 -9 -6 -13 2 -13 6 0 -2 -21
-18 -47 -27 -46 -51 -122 -48 -153 3 -32 -16 -90 -29 -90 -21 0 -28 28 -13 46
7 9 16 46 20 83 3 36 14 84 25 106 10 22 19 42 20 45 1 10 26 66 51 116 14 29
23 58 20 67 -3 8 -1 19 6 26 9 9 12 37 21 186 3 45 14 75 28 75 5 0 7 -4 3 -9z
m235 -20 c0 -6 -4 -13 -10 -16 -5 -3 -10 1 -10 9 0 9 5 16 10 16 6 0 10 -4 10
-9z m1175 -61 c-3 -5 -15 -10 -26 -10 -11 0 -17 5 -14 10 3 6 15 10 26 10 11
0 17 -4 14 -10z m-75 -10 c0 -5 -4 -10 -10 -10 -5 0 -10 5 -10 10 0 6 5 10 10
10 6 0 10 -4 10 -10z m-1116 -26 c4 -9 4 -19 2 -21 -8 -8 -26 8 -26 23 0 19
16 18 24 -2z m394 -204 c15 -25 8 -40 -18 -40 -24 0 -34 16 -15 24 8 3 12 12
9 21 -9 22 9 18 24 -5z m-390 -38 c6 -18 -15 -14 -22 4 -4 10 -1 14 6 12 6 -2
14 -10 16 -16z m322 -32 c0 -5 -4 -10 -10 -10 -5 0 -10 5 -10 10 0 6 5 10 10
10 6 0 10 -4 10 -10z m46 -9 c-4 -6 -14 -7 -23 -4 -15 6 -14 7 3 13 22 9 29 6
20 -9z m-631 -68 c-9 -50 -28 -41 -21 10 3 23 5 49 6 57 1 8 6 4 11 -10 6 -14
8 -40 4 -57z m2367 -5 c-7 -7 -12 -8 -12 -2 0 14 12 26 19 19 2 -3 -1 -11 -7
-17z m85 6 c-3 -3 -12 -4 -19 -1 -8 3 -5 6 6 6 11 1 17 -2 13 -5z m-43 -29
c-7 -16 -24 -21 -24 -6 0 8 7 13 27 20 1 1 0 -6 -3 -14z m-49 -35 c-3 -5 -10
-10 -16 -10 -5 0 -9 5 -9 10 0 6 7 10 16 10 8 0 12 -4 9 -10z m-2481 -283 c4
-35 3 -48 -6 -45 -13 5 -22 62 -13 85 8 22 11 15 19 -40z m951 -187 c3 -5 2
-10 -4 -10 -5 0 -13 5 -16 10 -3 6 -2 10 4 10 5 0 13 -4 16 -10z m-630 -252
c14 -3 11 -6 -12 -9 -28 -5 -33 -2 -33 14 0 14 3 17 13 9 6 -5 21 -12 32 -14z
m33 -86 c2 -7 -3 -12 -12 -12 -9 0 -16 7 -16 16 0 17 22 14 28 -4z m-332 -29
c-10 -10 -19 5 -10 18 6 11 8 11 12 0 2 -7 1 -15 -2 -18z m334 -1 c0 -13 -12
-22 -22 -16 -10 6 -1 24 13 24 5 0 9 -4 9 -8z m4 -49 c4 -9 3 -20 -2 -25 -11
-11 -36 17 -27 32 9 15 22 12 29 -7z m268 -88 c0 -5 -5 -11 -11 -13 -6 -2 -11
4 -11 13 0 9 5 15 11 13 6 -2 11 -8 11 -13z m-258 -11 c20 -8 21 -40 1 -48
-25 -9 -45 4 -45 30 0 24 14 30 44 18z m236 -24 c0 -5 11 -10 25 -10 25 0 26
-2 22 -50 -5 -54 -10 -66 -26 -56 -6 4 -8 25 -4 51 5 38 3 45 -11 45 -9 0 -19
-7 -22 -15 -4 -8 -10 -15 -15 -15 -13 0 -11 34 3 48 15 15 28 16 28 2z m-225
-70 c3 -5 1 -10 -4 -10 -6 0 -11 5 -11 10 0 6 2 10 4 10 3 0 8 -4 11 -10z m-8
-165 c-28 -31 -51 -26 -38 8 5 12 13 22 19 22 6 0 14 3 18 8 4 4 12 3 17 -2 6
-6 0 -20 -16 -36z m278 4 c4 -12 3 -25 -2 -30 -12 -12 -47 26 -38 40 11 18 33
12 40 -10z m-60 1 c3 -6 -6 -15 -20 -20 -14 -5 -24 -14 -20 -19 3 -5 1 -12 -5
-16 -11 -7 -14 24 -4 49 7 18 39 22 49 6z m-468 -42 c-3 -8 -6 -5 -6 6 -1 11
2 17 5 13 3 -3 4 -12 1 -19z m1123 -32 c0 -8 -4 -17 -9 -21 -12 -7 -24 12 -16
25 9 15 25 12 25 -4z m-604 -11 c6 -16 -12 -45 -27 -45 -5 0 -9 14 -9 30 0 32
26 43 36 15z m-231 -14 c7 -12 -12 -24 -25 -16 -11 7 -4 25 10 25 5 0 11 -4
15 -9z m825 -55 c0 -2 -3 -11 -6 -20 -9 -23 -24 -20 -24 4 0 11 7 20 15 20 8
0 15 -2 15 -4z m-643 -28 c-3 -8 -6 -5 -6 6 -1 11 2 17 5 13 3 -3 4 -12 1 -19z
m-527 -22 c0 -3 -7 -6 -15 -6 -9 0 -15 9 -15 21 0 18 2 19 15 5 8 -8 15 -17
15 -20z m-12 -64 c-12 -50 -27 -56 -20 -9 4 29 21 62 28 54 2 -1 -2 -22 -8
-45z m333 28 c27 -15 24 -40 -5 -40 -13 0 -31 -3 -40 -6 -21 -8 -21 14 1 38
19 21 19 21 44 8z m219 -34 c0 -3 -4 -8 -10 -11 -5 -3 -10 -1 -10 4 0 6 5 11
10 11 6 0 10 -2 10 -4z m603 -13 c-7 -2 -19 -2 -25 0 -7 3 -2 5 12 5 14 0 19
-2 13 -5z m-594 -55 c1 -5 -3 -8 -9 -8 -5 0 -10 12 -9 28 0 24 1 25 9 7 5 -11
9 -23 9 -27z m-574 2 c3 -5 1 -10 -4 -10 -6 0 -11 5 -11 10 0 6 2 10 4 10 3 0
8 -4 11 -10z m365 -20 c12 -19 3 -30 -23 -30 -30 0 -51 15 -45 32 7 17 57 16
68 -2z m-375 -79 c-8 -8 -25 51 -18 62 4 7 10 -3 14 -23 4 -19 6 -37 4 -39z
m1205 29 c0 -5 -7 -10 -16 -10 -8 0 -12 5 -9 10 3 6 10 10 16 10 5 0 9 -4 9
-10z m-830 -66 c0 -8 -4 -14 -10 -14 -5 0 -10 9 -10 21 0 11 5 17 10 14 6 -3
10 -13 10 -21z m-371 -84 c0 -41 -1 -100 -3 -130 -2 -30 -5 -63 -5 -72 -1 -10
-6 -18 -12 -18 -8 0 -10 20 -5 68 4 37 9 99 11 137 4 98 5 99 9 94 3 -2 5 -38
5 -79z m303 68 c-9 -9 -15 -9 -24 0 -9 9 -7 12 12 12 19 0 21 -3 12 -12z m105
-30 c-3 -7 -5 -2 -5 12 0 14 2 19 5 13 2 -7 2 -19 0 -25z m166 26 c13 -5 13
-8 -4 -25 -10 -10 -23 -19 -29 -19 -5 0 -9 -4 -7 -9 1 -5 -2 -10 -8 -10 -5 -1
-11 9 -13 21 -2 16 4 27 20 34 13 6 24 12 25 13 1 0 8 -2 16 -5z m-239 -19 c3
-8 13 -15 22 -15 12 0 15 -6 11 -21 -8 -31 2 -49 27 -49 16 0 25 -9 34 -33 16
-43 15 -47 -4 -47 -10 0 -14 6 -11 15 4 10 -4 16 -28 21 -28 5 -38 14 -61 59
-25 50 -27 85 -5 85 5 0 11 -7 15 -15z m296 0 c0 -8 -4 -15 -10 -15 -5 0 -10
7 -10 15 0 8 5 15 10 15 6 0 10 -7 10 -15z m-235 -45 c3 -5 1 -10 -4 -10 -6 0
-11 5 -11 10 0 6 2 10 4 10 3 0 8 -4 11 -10z m-225 -75 c0 -8 -4 -15 -10 -15
-5 0 -10 7 -10 15 0 8 5 15 10 15 6 0 10 -7 10 -15z m191 -94 c21 -17 22 -20
7 -26 -9 -4 -26 -1 -39 5 -18 10 -21 10 -16 -2 3 -8 2 -21 -3 -28 -6 -9 -13
-7 -29 9 -24 24 -26 32 -9 49 18 18 63 14 89 -7z m158 -12 c-15 -9 -32 -2 -24
11 3 5 13 6 21 3 12 -4 13 -8 3 -14z m-79 -4 c0 -17 -2 -18 -24 -9 -23 9 -20
24 4 24 11 0 20 -7 20 -15z m-260 -47 c0 -9 -3 -19 -7 -21 -5 -3 -8 10 -9 29
0 21 3 30 8 22 4 -7 8 -21 8 -30z m520 11 c0 -15 -4 -19 -16 -15 -9 3 -20 6
-25 6 -4 0 -6 7 -3 15 9 24 44 19 44 -6z m-746 5 c26 -10 40 -43 26 -59 -7 -8
-13 -41 -14 -73 -1 -41 -5 -58 -13 -55 -13 5 -12 -34 1 -55 4 -7 2 -12 -4 -12
-6 0 -4 -9 5 -24 21 -32 36 -243 17 -255 -10 -7 -9 -52 2 -69 4 -7 7 -47 6
-90 -2 -82 6 -205 16 -235 3 -10 0 -24 -6 -32 -9 -11 -9 -18 2 -28 10 -11 12
-31 8 -83 -4 -39 -1 -100 6 -139 30 -177 45 -298 59 -500 9 -118 11 -137 25
-171 13 -30 7 -84 -9 -84 -4 0 -11 37 -15 83 -4 45 -11 107 -16 137 -11 64
-32 228 -32 250 -1 40 -27 218 -36 240 -6 14 -14 46 -17 72 -4 29 -13 52 -23
58 -16 9 -16 9 1 10 9 0 17 -4 17 -10 0 -5 4 -10 9 -10 6 0 8 9 6 21 -2 11 0
31 5 44 11 30 -1 42 -15 14 -10 -18 -13 -19 -18 -5 -3 8 1 22 9 31 14 13 14
18 1 44 -13 26 -13 30 0 35 10 4 13 14 9 33 -4 16 -8 82 -11 148 -3 66 -7 136
-10 155 -3 19 -7 60 -9 90 -2 30 -4 58 -5 61 -1 3 -14 4 -29 1 -27 -4 -28 -2
-26 37 1 23 -2 44 -7 47 -5 3 -9 11 -9 17 0 7 4 6 10 -3 8 -12 10 -11 10 7 0
12 -4 25 -10 28 -18 11 -10 26 13 23 21 -3 22 0 19 48 -2 30 1 55 7 58 11 7
15 68 5 78 -3 3 -13 4 -23 1 -12 -3 -17 -12 -14 -26 2 -12 -2 -30 -9 -40 -12
-16 -14 -14 -15 21 -1 27 3 42 13 46 8 3 14 19 14 36 l0 31 30 -22 c38 -29 47
-19 26 26 -9 19 -14 40 -11 45 7 12 8 12 29 4z m486 -14 c0 -5 -9 -10 -20 -10
-11 0 -20 5 -20 10 0 6 9 10 20 10 11 0 20 -4 20 -10z m-42 -16 c16 -11 21
-22 17 -35 -5 -13 -2 -19 9 -19 14 0 14 -3 4 -20 -12 -19 -13 -19 -35 2 -13
12 -21 28 -19 35 3 7 1 13 -4 13 -6 0 -10 9 -10 20 0 24 8 25 38 4z m154 -81
c2 -49 2 -136 0 -194 l-3 -106 -25 5 c-24 4 -31 16 -15 26 5 3 8 28 7 56 -1
34 3 50 12 50 16 0 15 20 -2 39 -18 21 -32 91 -18 91 6 0 11 8 12 18 1 26 7
86 8 95 1 4 6 7 11 7 5 0 11 -39 13 -87z m199 60 c0 -10 2 -28 3 -41 3 -27 -6
-35 -28 -26 -12 5 -14 10 -6 19 7 9 7 21 0 39 -8 23 -7 26 10 26 12 0 20 -7
21 -17z m-488 -50 c4 -20 3 -40 -2 -43 -13 -7 -15 -30 -8 -70 11 -56 14 -131
6 -136 -14 -8 -42 57 -30 69 7 7 6 20 -4 42 -14 36 -16 105 -2 105 4 0 5 9 2
20 -6 20 9 50 25 50 4 0 10 -17 13 -37z m932 -3 c3 -5 -1 -10 -10 -10 -9 0
-13 5 -10 10 3 6 8 10 10 10 2 0 7 -4 10 -10z m-793 -60 c3 -16 1 -30 -4 -30
-4 0 -8 6 -8 14 0 8 -3 21 -6 30 -3 9 -2 16 4 16 5 0 12 -13 14 -30z m386 0
c2 -24 -2 -30 -18 -30 -23 0 -23 0 -10 34 13 35 25 33 28 -4z m-583 -130 c3
-5 2 -10 -4 -10 -5 0 -13 5 -16 10 -3 6 -2 10 4 10 5 0 13 -4 16 -10z m52
-112 c-3 -8 -6 -5 -6 6 -1 11 2 17 5 13 3 -3 4 -12 1 -19z m328 -162 c2 -23 8
-61 14 -86 11 -49 15 -143 5 -153 -3 -3 -12 -3 -19 -1 -11 4 -11 12 -3 37 9
23 8 32 0 35 -7 2 -12 12 -12 22 0 11 -8 24 -17 29 -16 9 -16 10 5 11 26 0 28
7 6 32 -10 10 -17 35 -18 55 -1 29 -6 40 -23 48 -29 12 -29 17 4 49 l26 27 14
-33 c8 -17 15 -50 18 -72z m-678 49 c-5 -30 -3 -45 4 -45 6 0 9 -9 6 -20 -4
-14 0 -20 11 -20 14 0 14 -2 3 -9 -10 -7 -21 0 -38 26 -22 33 -23 37 -8 54 10
10 14 23 10 28 -3 6 -3 16 0 21 13 21 17 8 12 -35z m337 -11 c29 -11 16 -24
-24 -24 -38 0 -49 8 -33 23 8 9 36 9 57 1z m-24 -164 c0 -5 -2 -10 -4 -10 -3
0 -8 5 -11 10 -3 6 -1 10 4 10 6 0 11 -4 11 -10z m-286 -111 c5 -46 3 -60 -6
-57 -8 3 -15 31 -18 76 -9 127 11 111 24 -19z m630 36 c-4 -8 -11 -12 -16 -9
-6 4 -5 10 3 15 19 12 19 11 13 -6z m-46 -7 c-6 -18 -28 -21 -28 -4 0 9 7 16
16 16 9 0 14 -5 12 -12z m42 -43 c0 -9 9 -15 25 -15 24 0 25 -3 21 -42 -6 -61
-17 -102 -30 -110 -16 -11 -76 -9 -76 2 0 6 13 10 29 10 17 0 32 4 36 9 8 13
-33 34 -51 27 -12 -5 -15 1 -12 27 3 29 6 32 36 31 25 -2 32 2 32 17 0 13 -8
20 -22 21 -13 0 -29 2 -37 2 -22 2 -25 24 -4 29 36 9 53 7 53 -8z m-281 -140
c12 -7 5 -25 -9 -25 -15 0 -30 37 -23 56 6 15 7 15 14 -3 4 -12 12 -24 18 -28z
m17 -90 c-3 -9 -10 -13 -16 -10 -12 7 -13 48 -3 59 11 11 27 -30 19 -49z m302
16 c8 -5 12 -24 11 -49 -3 -36 -6 -42 -31 -47 -34 -8 -37 -22 -5 -28 21 -3 21
-4 3 -12 -13 -6 -21 -5 -24 3 -2 7 -12 12 -22 12 -9 0 -23 6 -29 14 -9 11 -7
15 9 19 16 4 19 12 16 38 -2 18 -2 39 1 46 6 14 51 17 71 4z m-348 -75 c0 -2
-7 -6 -15 -10 -8 -3 -15 -1 -15 4 0 6 7 10 15 10 8 0 15 -2 15 -4z m31 -139
c-6 -6 -6 -19 -1 -33 12 -31 0 -37 -28 -14 -26 21 -28 42 -7 60 21 18 19 35
-7 53 l-23 16 28 0 c15 1 28 7 28 14 1 6 5 -10 11 -37 6 -31 5 -53 -1 -59z
m354 93 c-3 -5 -10 -10 -16 -10 -5 0 -9 5 -9 10 0 6 7 10 16 10 8 0 12 -4 9
-10z m-11 -35 c4 -10 -1 -15 -14 -15 -11 0 -20 7 -20 15 0 8 6 15 14 15 8 0
16 -7 20 -15z m33 -147 c-3 -8 -6 -5 -6 6 -1 11 2 17 5 13 3 -3 4 -12 1 -19z
m-97 -92 c0 -25 -12 -46 -26 -46 -17 0 -18 32 -2 48 16 16 28 15 28 -2z m100
-37 c0 -11 -4 -17 -10 -14 -5 3 -10 13 -10 21 0 8 5 14 10 14 6 0 10 -9 10
-21z m-713 -151 c3 -57 8 -109 12 -116 9 -16 2 -62 -9 -62 -5 0 -11 33 -14 73
-17 230 -17 232 -5 220 7 -7 14 -54 16 -115z m693 22 c0 -4 -13 -7 -30 -6 -30
1 -44 26 -15 26 10 0 15 10 15 28 1 27 1 27 15 -7 8 -18 15 -37 15 -41z m36
-69 c-7 -11 -56 -21 -56 -11 0 13 13 20 37 20 13 0 22 -4 19 -9z m-358 -49
c-1 -52 13 -122 24 -122 5 0 7 -8 4 -17 -3 -10 -6 -62 -7 -116 -2 -66 -7 -101
-16 -108 -19 -17 -16 -35 13 -66 14 -15 30 -36 35 -45 16 -30 -5 -20 -26 12
-22 33 -60 42 -51 13 3 -10 2 -24 -3 -32 -12 -19 -24 19 -16 52 4 14 2 28 -4
31 -16 10 -13 63 3 69 9 3 12 14 9 25 -3 12 1 22 11 25 13 5 15 21 12 88 -2
44 -9 86 -15 92 -8 8 -11 8 -11 -1 0 -7 -4 -12 -9 -12 -15 0 -3 73 13 82 12 7
13 13 4 27 -14 23 -4 53 16 45 10 -4 15 -18 14 -42z m47 28 c22 -24 17 -31
-13 -23 -13 3 -22 13 -22 24 0 25 12 24 35 -1z m345 -81 c0 -14 -17 -10 -23 5
-4 10 -1 13 9 9 7 -3 14 -9 14 -14z m-18 -71 c-7 -7 -12 -8 -12 -2 0 14 12 26
19 19 2 -3 -1 -11 -7 -17z m-717 -135 c6 -87 4 -103 -8 -103 -11 0 -16 17 -19
77 -2 42 -2 92 0 111 8 61 21 19 27 -85z m305 47 c0 -5 -2 -10 -4 -10 -3 0 -8
5 -11 10 -3 6 -1 10 4 10 6 0 11 -4 11 -10z m719 -72 c0 -28 -2 -30 -9 -13
-12 28 -12 45 0 45 6 0 10 -15 9 -32z m-913 -3 c-2 -7 0 -17 6 -23 11 -11 3
-32 -13 -32 -16 0 -28 43 -17 63 10 19 32 13 24 -8z m916 -60 c0 -5 -5 -11
-11 -13 -6 -2 -11 4 -11 13 0 9 5 15 11 13 6 -2 11 -8 11 -13z m-872 -34 c0
-6 -4 -12 -8 -15 -5 -3 -9 1 -9 9 0 8 4 15 9 15 4 0 8 -4 8 -9z m-10 -49 c0
-4 -4 -12 -9 -17 -8 -9 9 -161 25 -212 3 -13 2 -23 -4 -23 -26 0 -21 -53 22
-205 8 -27 20 -88 26 -135 7 -47 14 -99 17 -115 4 -26 1 -31 -16 -32 -21 -2
-30 22 -11 29 7 2 5 16 -5 40 -8 21 -15 48 -15 60 0 24 -25 142 -40 193 -5 17
-11 45 -12 64 -1 18 -8 35 -14 38 -7 2 -10 13 -7 24 3 10 0 26 -7 34 -13 15
-8 19 23 16 23 -3 22 16 -2 24 -24 7 -35 35 -21 49 8 8 13 7 20 -4 16 -26 21
-4 5 26 -8 16 -15 43 -15 59 0 17 -7 39 -15 49 -18 23 -11 36 15 31 11 -2 20
0 20 6 0 5 5 9 10 9 6 0 10 -4 10 -8z m176 -87 c19 -14 18 -14 -3 -15 -13 0
-23 -4 -23 -10 0 -5 6 -10 14 -10 21 0 38 -24 25 -37 -6 -6 -6 -18 0 -35 10
-26 17 -108 26 -268 2 -47 7 -112 11 -144 5 -40 4 -57 -3 -53 -10 7 -23 56
-28 107 -1 14 -5 48 -9 75 -25 186 -31 217 -43 222 -14 6 -18 33 -5 33 5 0 7
34 4 75 -5 78 0 86 34 60z m710 -100 c-3 -8 -12 -12 -20 -9 -12 5 -12 8 2 25
17 20 28 10 18 -16z m-675 2 c-10 -9 -11 -8 -5 6 3 10 9 15 12 12 3 -3 0 -11
-7 -18z m409 -238 c0 -41 -3 -49 -13 -41 -14 12 -11 92 4 92 5 0 9 -23 9 -51z
m-378 -341 c-7 -7 -12 -8 -12 -2 0 14 12 26 19 19 2 -3 -1 -11 -7 -17z m-182
-18 c0 -10 6 -23 13 -27 16 -9 30 -83 16 -83 -5 0 -9 -7 -9 -15 0 -8 -6 -12
-15 -9 -11 5 -12 10 -2 25 9 14 9 26 -2 51 -20 51 -25 78 -12 78 6 0 11 -9 11
-20z m194 -72 c3 -35 6 -72 6 -82 1 -11 5 -27 11 -38 7 -14 6 -18 -5 -18 -19
0 -26 23 -30 108 -2 39 -7 75 -10 81 -4 6 -1 11 8 11 10 0 16 -17 20 -62z
m-264 -4 c0 -8 -4 -14 -10 -14 -5 0 -10 9 -10 21 0 11 5 17 10 14 6 -3 10 -13
10 -21z m137 -151 c3 -18 2 -40 -2 -50 -6 -15 -9 -11 -16 17 -5 19 -11 58 -14
85 l-5 50 16 -35 c9 -19 18 -49 21 -67z m33 -133 c0 -15 4 -30 9 -35 5 -6 12
-28 16 -50 5 -37 4 -39 -11 -24 -14 14 -21 38 -44 134 -1 6 -2 19 -1 30 2 18
3 18 16 -5 8 -14 14 -36 15 -50z m145 -11 c-5 -31 -3 -43 9 -52 8 -7 17 -32
20 -57 2 -25 9 -58 15 -73 14 -36 14 -37 -4 -37 -11 0 -15 11 -15 39 0 22 -5
43 -11 47 -6 3 -8 16 -5 27 3 12 -2 29 -11 39 -10 11 -16 34 -15 58 1 52 0 50
13 50 7 0 8 -14 4 -41z m129 -224 c11 -8 16 -18 12 -22 -4 -4 -10 -3 -14 3 -4
6 -16 16 -27 22 -14 8 -15 11 -5 11 8 0 24 -6 34 -14z m-72 -40 c3 -14 2 -25
-2 -25 -9 0 -20 25 -20 46 0 23 17 7 22 -21z m-102 -16 c0 -10 -4 -19 -9 -19
-12 0 -23 29 -15 41 8 14 24 0 24 -22z m128 -76 c11 -29 17 -53 14 -53 -11 0
-49 84 -44 98 6 18 7 15 30 -45z m-121 -9 c-3 -4 0 -19 8 -35 17 -32 18 -39 7
-39 -10 0 -33 61 -26 71 3 5 8 9 11 9 4 0 4 -3 0 -6z m49 -174 c2 -14 7 -34
13 -45 5 -11 16 -56 25 -100 9 -44 28 -117 42 -162 14 -46 24 -88 21 -95 -6
-17 -35 54 -49 117 -6 28 -17 62 -25 78 -7 15 -13 33 -12 40 2 6 -2 30 -9 52
-17 63 -42 173 -42 187 1 20 33 -44 36 -72z m131 -10 c4 0 8 -12 9 -27 0 -16
8 -56 17 -91 11 -45 12 -62 4 -59 -7 2 -14 17 -15 33 -2 16 -8 34 -13 40 -5 6
-12 32 -15 58 -4 26 -11 49 -15 52 -5 3 -9 17 -9 32 1 27 1 27 15 -5 8 -18 18
-33 22 -33z m72 -233 c16 -53 57 -161 76 -196 9 -18 15 -35 13 -37 -6 -5 -43
23 -43 33 -1 19 -29 92 -57 150 -17 34 -28 69 -24 78 8 22 23 10 35 -28z m561
23 c0 -5 -5 -10 -11 -10 -5 0 -7 5 -4 10 3 6 8 10 11 10 2 0 4 -4 4 -10z
m-575 -230 c3 -5 1 -10 -4 -10 -6 0 -11 5 -11 10 0 6 2 10 4 10 3 0 8 -4 11
-10z m-42 -60 c3 -11 1 -18 -4 -14 -5 3 -9 12 -9 20 0 20 7 17 13 -6z m181
-47 c16 -47 16 -48 -3 -28 -21 22 -37 75 -22 75 5 0 16 -21 25 -47z m61 -105
c15 -14 25 -34 25 -52 0 -16 7 -37 16 -47 9 -10 17 -29 18 -43 0 -14 6 -26 12
-26 6 0 14 -14 18 -30 4 -22 15 -35 41 -47 19 -9 35 -20 35 -25 0 -4 9 -8 20
-8 16 0 20 -7 20 -35 0 -19 -4 -35 -9 -35 -5 0 -7 9 -4 19 4 15 -4 24 -35 40
-23 11 -43 25 -47 31 -9 15 -25 12 -25 -6 0 -8 -4 -12 -10 -9 -5 3 -10 19 -10
36 0 16 -9 38 -20 49 -11 11 -20 29 -20 40 0 10 -11 36 -25 56 -14 21 -23 44
-21 51 3 7 -2 21 -12 31 -19 19 -23 53 -7 64 6 4 11 -1 13 -12 2 -10 14 -29
27 -42z m239 -74 c3 -8 -1 -22 -9 -30 -13 -14 -15 -14 -15 0 0 9 6 16 13 17
10 0 10 2 0 6 -15 5 -17 23 -4 23 5 0 12 -7 15 -16z m4891 -22 c-3 -3 -11 0
-18 7 -9 10 -8 11 6 5 10 -3 15 -9 12 -12z m-4590 -212 c-4 -11 -2 -20 4 -20
6 0 11 -16 11 -35 0 -25 -4 -35 -16 -35 -11 0 -14 6 -9 20 5 15 0 22 -19 30
-40 15 -27 60 17 60 14 0 17 -5 12 -20z m4368 3 c-7 -2 -9 -11 -7 -18 4 -9 -4
-17 -21 -21 -26 -6 -51 5 -28 13 7 3 23 13 35 23 13 10 25 16 28 13 3 -3 0 -8
-7 -10z m-23 -57 c0 -3 -10 -22 -22 -43 -18 -30 -24 -34 -26 -19 -5 24 17 66
35 66 7 0 13 -2 13 -4z m300 -26 c0 -5 -7 -7 -15 -4 -8 4 -15 8 -15 10 0 2 7
4 15 4 8 0 15 -4 15 -10z m-4666 -35 c4 -14 20 -31 40 -40 32 -15 54 -54 42
-74 -3 -5 -1 -22 4 -39 7 -25 5 -36 -10 -54 -18 -23 -19 -23 -26 -3 -4 11 -16
27 -26 36 -10 9 -18 23 -18 30 0 8 -9 31 -20 52 -24 44 -27 117 -6 117 8 0 17
-11 20 -25z m66 4 c0 -5 -4 -9 -10 -9 -5 0 -10 7 -10 16 0 8 5 12 10 9 6 -3
10 -10 10 -16z m-150 -39 c0 -5 -5 -10 -11 -10 -5 0 -7 5 -4 10 3 6 8 10 11
10 2 0 4 -4 4 -10z m4386 -19 c-16 -18 -46 -19 -46 -2 0 8 53 29 59 24 2 -1
-4 -12 -13 -22z m304 -5 c0 -2 -8 -10 -17 -17 -16 -13 -17 -12 -4 4 13 16 21
21 21 13z m-4264 -42 c-5 -13 -10 -14 -18 -6 -6 6 -8 18 -4 28 5 13 10 14 18
6 6 -6 8 -18 4 -28z m3929 6 c3 -5 -1 -10 -9 -10 -8 0 -18 5 -21 10 -3 6 1 10
9 10 8 0 18 -4 21 -10z m-23 -56 c-2 -16 -15 -46 -30 -67 -43 -60 -61 -89 -79
-129 -22 -45 -115 -151 -248 -281 -107 -106 -155 -140 -155 -112 0 9 14 28 31
42 17 14 28 32 25 40 -7 18 27 51 61 59 34 9 153 111 153 131 0 19 81 113 98
113 6 0 11 3 10 8 -3 17 15 63 31 75 24 18 61 74 61 92 0 8 5 15 10 15 6 0 10
12 10 26 0 16 5 24 13 21 7 -2 11 -16 9 -33z m121 -4 c-5 -19 -23 -29 -23 -12
0 7 20 32 26 32 1 0 0 -9 -3 -20z m-4043 2 c0 -5 -7 -9 -15 -9 -8 0 -12 4 -9
9 3 4 9 8 15 8 5 0 9 -4 9 -8z m-220 -72 c0 -5 -4 -10 -9 -10 -6 0 -13 5 -16
10 -3 6 1 10 9 10 9 0 16 -4 16 -10z m390 -52 c0 -5 -7 -8 -15 -8 -15 0 -20
21 -8 33 7 7 23 -11 23 -25z m3512 -40 c-28 -28 -38 -18 -11 11 12 12 24 20
27 16 3 -3 -4 -15 -16 -27z m-2 -82 c0 -3 -4 -8 -10 -11 -5 -3 -10 -1 -10 4 0
6 5 11 10 11 6 0 10 -2 10 -4z m-3347 -21 c3 -14 -45 -18 -73 -5 -23 10 -23
10 8 6 19 -3 32 -1 32 5 0 13 30 8 33 -6z m67 -45 c0 -5 -2 -10 -4 -10 -3 0
-8 5 -11 10 -3 6 -1 10 4 10 6 0 11 -4 11 -10z m3413 -22 c-22 -39 -94 -111
-102 -102 -3 3 1 11 9 17 8 7 35 36 58 65 50 59 61 66 35 20z m-3326 -24 c-3
-3 -12 -4 -19 -1 -8 3 -5 6 6 6 11 1 17 -2 13 -5z m97 -110 c9 -3 16 -10 16
-15 0 -15 -37 -10 -50 6 -10 12 -10 15 3 15 8 0 22 -3 31 -6z m2266 -44 c0
-13 -28 -25 -38 -16 -3 4 0 11 8 16 20 13 30 12 30 0z m550 -110 c0 -5 -15
-17 -32 -26 -18 -9 -42 -24 -53 -34 -11 -10 -29 -20 -40 -22 -11 -1 -29 -11
-39 -20 -21 -19 -36 -23 -36 -10 0 10 67 53 155 100 48 25 45 24 45 12z
m-3109 -20 c5 0 9 -8 9 -17 0 -13 -3 -14 -12 -5 -7 7 -20 12 -31 12 -10 0 -15
5 -12 11 4 6 14 8 22 5 8 -3 19 -6 24 -6z m2219 -94 c0 -15 -58 -56 -79 -56
-23 0 -10 31 22 50 38 24 57 25 57 6z m170 -112 c0 -3 -24 -16 -52 -30 -29
-14 -80 -39 -112 -56 -62 -32 -136 -48 -136 -31 0 20 20 30 185 92 76 29 115
37 115 25z"/>
<path d="M5865 24300 c-3 -5 1 -10 9 -10 9 0 16 5 16 10 0 6 -4 10 -9 10 -6 0
-13 -4 -16 -10z"/>
<path d="M10480 19810 c-13 -8 -12 -10 3 -10 9 0 17 5 17 10 0 12 -1 12 -20 0z"/>
<path d="M10740 28609 c0 -5 14 -9 30 -9 17 0 30 4 30 8 0 5 -13 9 -30 10 -16
0 -30 -4 -30 -9z"/>
<path d="M10381 28496 c-14 -8 -32 -11 -40 -8 -8 3 -12 1 -8 -5 6 -10 95 -6
107 4 4 4 -20 23 -30 22 -3 0 -16 -6 -29 -13z"/>
<path d="M10474 28495 c23 -17 72 -20 81 -5 3 6 3 10 -2 11 -4 1 -28 3 -53 5
-41 3 -43 2 -26 -11z"/>
<path d="M5222 28350 c-17 -18 -53 -134 -59 -190 -1 -14 -12 -74 -24 -135 -11
-60 -25 -150 -29 -200 -4 -49 -13 -102 -19 -117 -6 -16 -10 -52 -9 -80 1 -29
-4 -112 -11 -184 -7 -81 -10 -193 -7 -290 6 -151 8 -266 7 -362 -1 -40 -2 -42
-17 -27 -9 9 -20 13 -23 8 -4 -4 -5 -146 -2 -316 l6 -307 21 14 c30 21 36 98
22 282 -10 141 -10 152 8 172 30 35 37 26 31 -38 -3 -33 -1 -62 4 -65 4 -3 6
-12 3 -19 -3 -7 1 -16 9 -19 12 -5 14 14 12 113 -3 121 -9 145 -34 145 -8 0
-15 11 -16 25 -3 28 12 63 23 56 20 -12 31 11 22 44 -10 35 -6 171 10 325 9
92 5 144 -12 127 -8 -8 -18 -197 -19 -384 -1 -70 -4 -85 -15 -81 -13 5 -21
103 -17 208 5 129 15 260 24 315 5 36 11 94 13 130 5 84 31 253 41 271 5 7 14
54 21 103 7 50 23 136 34 191 12 55 23 138 26 185 3 47 9 89 15 95 5 5 9 13 9
17 0 15 -29 8 -48 -12z m-151 -1663 c-8 -8 -11 -5 -11 9 0 27 14 41 18 19 2
-9 -1 -22 -7 -28z"/>
<path d="M5027 26893 c-2 -4 -1 -17 3 -27 6 -19 7 -19 14 -1 7 19 -8 44 -17
28z"/>
<path d="M5124 26398 c-6 -9 -7 -60 -4 -202 0 -15 3 -17 12 -8 7 7 12 51 12
117 1 99 -4 120 -20 93z"/>
<path d="M5045 26025 c5 -78 3 -120 -4 -129 -17 -21 -6 -713 15 -953 7 -80 29
-86 39 -10 12 96 7 199 -13 220 -16 19 -16 19 6 13 13 -5 22 -3 22 3 0 6 -4
11 -9 11 -5 0 -9 48 -9 108 1 59 -2 125 -6 147 -4 22 -2 81 3 130 20 177 6
527 -22 563 -23 30 -28 8 -22 -103z"/>
<path d="M5120 25960 c0 -11 5 -20 10 -20 6 0 10 9 10 20 0 11 -4 20 -10 20
-5 0 -10 -9 -10 -20z"/>
<path d="M5135 25900 c-3 -5 1 -10 10 -10 9 0 13 5 10 10 -3 6 -8 10 -10 10
-2 0 -7 -4 -10 -10z"/>
<path d="M5138 25799 c-5 -29 3 -45 16 -32 9 9 7 51 -3 57 -5 3 -11 -8 -13
-25z"/>
<path d="M5155 25639 c-10 -15 3 -25 16 -12 7 7 7 13 1 17 -6 3 -14 1 -17 -5z"/>
<path d="M5065 24809 c-3 -9 -3 -58 0 -110 4 -52 8 -144 10 -205 3 -131 14
-232 25 -239 4 -2 15 4 25 15 14 16 16 23 7 32 -7 7 -12 32 -12 56 0 24 -4 51
-9 60 -5 10 -5 40 1 75 6 31 7 65 3 75 -5 9 -9 35 -11 57 -10 155 -24 222 -39
184z"/>
<path d="M5104 24180 c3 -30 6 -70 6 -87 0 -18 5 -33 10 -33 17 0 12 133 -6
156 -14 18 -15 15 -10 -36z"/>
<path d="M6170 20533 c0 -19 67 -83 86 -83 21 0 25 32 7 52 -19 21 -65 48 -83
48 -5 0 -10 -8 -10 -17z"/>
<path d="M6558 20113 c7 -3 16 -2 19 1 4 3 -2 6 -13 5 -11 0 -14 -3 -6 -6z"/>
<path d="M6594 20084 c17 -9 32 -12 37 -7 6 6 5 10 -3 10 -7 0 -24 3 -38 7
-23 6 -23 5 4 -10z"/>
<path d="M6650 20060 c0 -5 5 -10 11 -10 5 0 7 5 4 10 -3 6 -8 10 -11 10 -2 0
-4 -4 -4 -10z"/>
<path d="M7425 19770 c-4 -6 -2 -17 4 -23 15 -15 25 -2 13 19 -7 12 -11 13
-17 4z"/>
<path d="M9787 13567 c-4 -10 -7 -35 -6 -55 l1 -37 9 34 c6 18 9 43 7 55 -3
19 -4 19 -11 3z"/>
<path d="M9755 13530 c-3 -5 -1 -10 4 -10 6 0 11 5 11 10 0 6 -2 10 -4 10 -3
0 -8 -4 -11 -10z"/>
<path d="M11215 13368 c-75 -9 -145 -35 -142 -52 1 -6 -14 -12 -33 -14 -44 -4
-96 -27 -104 -47 -3 -8 -12 -15 -20 -15 -8 0 -18 -9 -21 -20 -4 -13 -15 -20
-32 -20 -14 0 -31 -6 -37 -14 -6 -8 -32 -25 -58 -39 -26 -13 -45 -27 -41 -31
3 -3 1 -6 -7 -6 -11 0 -50 -30 -115 -87 -10 -10 -31 -27 -45 -38 -15 -11 -25
-25 -23 -31 2 -6 -10 -23 -27 -37 -37 -31 -37 -37 -5 -37 23 0 25 -4 25 -40 0
-22 5 -40 10 -40 6 0 10 -18 10 -40 0 -22 -4 -40 -8 -40 -5 0 -12 -53 -15
-117 -4 -72 -11 -119 -18 -124 -8 -5 -3 -16 17 -35 l29 -29 3 30 c2 16 -1 31
-7 33 -7 2 -11 35 -11 83 0 72 2 79 20 79 18 0 20 -7 20 -80 l0 -80 30 0 c26
0 30 4 30 28 0 27 46 82 69 82 6 0 11 5 11 10 0 6 7 10 15 10 8 0 15 7 15 15
0 9 9 15 25 15 20 0 25 5 25 25 0 14 6 25 13 25 6 0 24 7 40 14 18 10 27 11
27 4 0 -6 11 -1 25 12 14 13 33 24 44 25 10 0 26 9 35 18 10 9 21 17 25 17 5
0 20 11 35 25 15 14 33 25 40 25 8 0 16 7 20 15 3 8 14 15 24 15 10 0 27 7 38
15 10 8 26 15 35 15 9 0 24 9 35 21 10 11 32 27 49 35 119 59 215 162 215 234
0 11 -4 20 -8 20 -5 0 -15 18 -22 40 -7 22 -21 42 -31 45 -10 4 -27 19 -38 34
-17 23 -40 35 -106 55 -5 2 -41 -1 -80 -6z m-582 -725 c-7 -2 -21 -2 -30 0
-10 3 -4 5 12 5 17 0 24 -2 18 -5z"/>
<path d="M10400 12226 c0 -11 -34 -15 -171 -21 -151 -7 -172 -10 -182 -26 -7
-11 -20 -19 -29 -19 -11 0 -18 -8 -18 -20 0 -11 -5 -20 -10 -20 -6 0 -20 -16
-31 -35 -12 -20 -26 -35 -33 -34 -28 3 -38 -3 -58 -38 -12 -20 -24 -31 -26
-25 -6 19 -29 14 -35 -9 -3 -11 -14 -23 -24 -25 -17 -5 -73 -106 -73 -132 0
-6 -9 -16 -19 -22 -13 -7 -19 -20 -19 -42 0 -52 -13 -91 -39 -116 -16 -15 -22
-29 -18 -41 3 -10 0 -25 -7 -32 -8 -8 -14 -33 -15 -56 0 -24 -5 -49 -12 -56
-6 -8 -8 -16 -5 -20 8 -8 -75 -147 -91 -153 -8 -3 -18 -19 -24 -35 -5 -16 -17
-29 -25 -29 -8 0 -17 -8 -20 -18 -3 -10 -21 -33 -39 -52 -46 -49 -65 -82 -76
-132 -11 -52 5 -141 34 -184 11 -16 18 -33 17 -38 -2 -4 2 -13 7 -20 25 -29
40 -134 47 -313 5 -122 4 -134 -14 -154 -12 -12 -18 -27 -16 -34 3 -7 0 -16
-5 -20 -6 -3 -9 -11 -6 -16 3 -5 -1 -6 -9 -3 -10 4 -16 1 -16 -8 0 -21 -33
-48 -58 -48 -11 0 -24 -5 -27 -10 -4 -6 -33 -8 -77 -3 -53 4 -72 3 -78 -7 -6
-9 -26 -13 -62 -11 -29 1 -60 3 -68 3 -41 1 -212 -79 -273 -128 -80 -64 -200
-187 -257 -264 -14 -18 -48 -63 -75 -99 -28 -36 -66 -88 -85 -116 -18 -27 -38
-53 -43 -56 -5 -4 -8 -18 -5 -32 4 -20 1 -23 -14 -19 -23 6 -59 -36 -53 -63 4
-19 3 -19 -14 1 l-17 21 -30 -24 c-16 -14 -23 -22 -16 -19 6 4 12 2 12 -3 0
-6 -6 -11 -12 -11 -14 0 -88 -62 -88 -74 0 -4 -16 -23 -35 -43 -19 -20 -32
-40 -28 -46 3 -5 1 -7 -4 -4 -11 7 -115 -81 -109 -92 4 -6 -25 -36 -34 -36 -3
0 -4 -5 -2 -12 1 -6 -7 -17 -18 -23 -11 -6 -20 -18 -20 -26 0 -8 -4 -13 -9 -9
-11 6 -61 -37 -61 -54 0 -7 -19 -30 -42 -53 -32 -32 -41 -47 -40 -73 1 -22 -6
-38 -22 -53 -14 -12 -27 -37 -31 -61 -4 -23 -11 -41 -16 -41 -5 0 -9 -9 -9
-20 0 -26 8 -25 31 2 l19 21 0 -41 0 -42 95 0 c88 0 95 2 95 20 0 26 46 92 76
108 24 13 33 32 14 32 -5 0 -10 7 -10 15 0 8 9 15 20 15 20 0 25 14 22 54 -1
10 6 34 17 55 54 102 81 173 81 210 0 40 6 51 58 109 12 14 22 29 22 34 0 11
55 68 65 68 10 0 30 23 38 43 3 9 13 17 21 17 8 0 21 12 28 28 9 18 22 28 40
30 15 2 35 13 44 25 11 15 18 18 21 10 3 -7 10 -13 18 -13 7 0 18 -7 25 -15
15 -19 40 -20 40 -2 0 22 99 20 136 -2 17 -10 47 -24 67 -30 30 -10 37 -18 37
-38 0 -14 7 -31 16 -38 26 -18 24 -116 -2 -152 -12 -15 -28 -44 -37 -63 -10
-20 -40 -60 -67 -90 -128 -140 -160 -179 -154 -194 3 -9 -6 -17 -25 -24 -25
-9 -31 -17 -31 -40 0 -21 -8 -35 -25 -46 -28 -18 -34 -46 -10 -46 21 0 19 -4
-21 -44 -42 -42 -44 -43 -44 -16 0 30 -18 24 -22 -7 -2 -18 -12 -32 -29 -40
-40 -19 -56 -42 -39 -53 8 -5 12 -11 10 -13 -14 -13 -72 -37 -88 -37 -10 0
-29 -9 -42 -20 -12 -11 -26 -17 -30 -15 -7 4 -80 -61 -80 -71 0 -2 8 -4 17 -4
14 0 15 -2 4 -12 -11 -10 -14 -10 -18 0 -6 14 -59 16 -68 2 -3 -5 -26 -10 -51
-10 -24 0 -44 -3 -44 -8 0 -4 -18 -6 -40 -4 -26 3 -40 9 -40 18 0 18 -76 20
-82 2 -3 -9 -6 -9 -12 0 -4 7 -2 12 3 12 6 0 11 7 11 15 0 11 -11 15 -40 15
-36 0 -40 3 -40 25 0 23 -4 25 -40 25 -27 0 -40 -4 -40 -14 0 -18 -111 -30
-122 -13 -6 9 -10 9 -17 -2 -5 -8 -14 -10 -21 -6 -8 5 -11 4 -7 -2 8 -13 -14
-23 -49 -23 -13 0 -24 -3 -24 -7 0 -5 -18 -17 -40 -27 -22 -11 -40 -23 -40
-28 0 -4 -10 -8 -22 -8 -13 0 -32 -7 -42 -15 -11 -8 -17 -15 -14 -15 3 0 -14
-20 -38 -44 -24 -24 -46 -55 -49 -69 -4 -13 -22 -41 -40 -60 -19 -20 -46 -54
-60 -77 -14 -22 -30 -40 -36 -40 -13 0 -33 -20 -42 -42 -3 -10 -14 -18 -24
-18 -10 0 -34 -18 -54 -40 -26 -29 -45 -40 -65 -40 -16 0 -49 -11 -73 -25 -23
-14 -52 -25 -62 -25 -14 0 -19 -7 -19 -25 0 -22 -4 -25 -40 -25 -29 0 -40 -4
-40 -15 0 -8 5 -15 11 -15 5 0 7 -5 3 -11 -5 -8 -8 -8 -13 0 -5 7 -22 -3 -49
-28 -32 -31 -38 -40 -24 -43 12 -2 6 -9 -21 -25 -35 -21 -41 -31 -38 -59 1 -7
-14 -21 -34 -33 -33 -19 -35 -24 -35 -71 0 -49 -1 -50 -30 -50 -28 0 -30 -2
-30 -39 0 -23 5 -41 13 -44 7 -2 -1 -16 -23 -37 -22 -21 -30 -35 -22 -37 7 -3
12 -21 12 -44 0 -32 -3 -39 -20 -39 -14 0 -20 -7 -20 -24 0 -13 -3 -31 -6 -40
-4 -11 -1 -16 10 -16 12 0 16 -11 18 -42 0 -24 2 -47 3 -53 2 -5 3 -15 4 -20
0 -6 20 -31 44 -57 43 -47 172 -118 216 -118 12 0 38 -7 58 -15 20 -9 43 -13
52 -10 9 2 77 9 152 14 123 9 142 13 212 46 43 19 81 35 87 35 5 0 29 14 53
30 25 17 48 30 52 30 3 0 23 13 43 29 20 16 47 32 60 36 12 3 22 10 22 14 0 5
19 21 43 37 59 41 164 150 195 204 14 25 31 52 38 60 6 8 35 60 64 115 29 55
58 107 64 115 7 8 18 29 26 45 22 44 153 171 250 243 47 34 90 65 95 69 6 5
33 24 60 43 28 19 52 38 53 42 2 4 10 8 17 8 7 0 33 15 57 33 42 32 67 47 140
83 20 10 35 22 32 26 -3 4 4 8 15 8 11 0 23 5 26 10 4 6 51 33 105 59 100 50
191 100 200 111 3 3 21 12 40 20 19 8 46 21 60 30 14 9 45 30 70 46 25 16 47
31 50 34 9 9 44 29 80 48 19 9 43 27 53 40 10 12 38 34 63 48 24 14 44 29 44
33 0 3 13 12 29 19 16 7 42 25 57 40 39 36 151 112 172 117 19 4 165 54 197
67 49 19 263 36 286 22 4 -2 40 -6 80 -9 57 -4 77 -9 97 -27 l24 -23 23 27
c18 21 34 27 71 30 42 3 52 8 69 33 10 17 33 40 49 50 34 23 45 45 22 45 -24
0 -19 16 14 43 17 14 30 32 30 40 0 17 107 43 140 34 11 -3 20 -1 20 3 0 4 9
6 20 3 11 -3 20 -10 20 -15 0 -6 7 -7 16 -4 8 3 12 2 9 -4 -4 -6 1 -18 10 -27
14 -14 18 -14 26 -2 8 11 9 10 7 -6 -2 -12 2 -19 10 -17 8 1 11 -1 9 -5 -9
-14 21 -46 34 -37 7 4 10 3 5 -4 -3 -6 -2 -13 4 -17 5 -3 10 -15 10 -25 0 -13
9 -22 25 -26 14 -3 22 -10 19 -15 -9 -16 7 -33 18 -18 6 10 8 3 6 -21 -2 -25
1 -35 11 -35 8 0 18 -14 23 -32 6 -23 13 -31 24 -26 13 5 14 0 8 -33 -3 -22
-11 -45 -16 -51 -6 -7 -8 -24 -6 -38 3 -14 2 -25 -2 -25 -5 0 -6 -9 -3 -20 7
-26 -14 -77 -35 -85 -15 -6 -15 -8 3 -15 17 -6 15 -10 -20 -25 -33 -14 -65
-17 -177 -15 -137 1 -138 1 -138 -21 0 -21 -1 -21 -19 -5 -16 14 -19 15 -24 2
-3 -8 -1 -16 5 -18 7 -3 2 -14 -12 -28 -15 -15 -25 -19 -28 -12 -2 7 -12 12
-23 12 -12 0 -16 -5 -13 -15 4 -9 -3 -16 -20 -21 -22 -5 -26 -12 -26 -40 0
-38 5 -40 46 -19 15 8 30 12 32 10 7 -7 -9 -25 -24 -25 -8 0 -14 -4 -14 -10 0
-18 27 -10 43 13 l16 22 0 -22 c1 -13 -3 -23 -9 -23 -14 0 -13 -27 1 -32 6 -2
12 -20 14 -40 3 -32 0 -39 -28 -56 -23 -13 -37 -32 -47 -62 -8 -24 -21 -45
-30 -47 -8 -3 -26 -28 -39 -56 -13 -29 -27 -60 -32 -69 -5 -10 -9 -28 -9 -41
0 -13 -6 -29 -12 -35 -10 -10 -10 -17 0 -32 6 -11 12 -27 12 -36 0 -8 8 -23
17 -32 16 -16 16 -17 0 -20 -12 -3 -17 -14 -17 -42 0 -21 5 -40 11 -42 9 -3 9
-9 0 -25 -6 -12 -11 -38 -11 -57 0 -35 -1 -36 -39 -36 -38 0 -39 -1 -46 -40
-4 -21 -4 -48 0 -60 4 -13 2 -20 -7 -20 -16 1 -68 81 -68 107 0 10 -6 25 -12
31 -10 10 -10 15 2 22 12 8 12 11 -1 27 -9 10 -21 32 -28 50 -8 19 -18 30 -26
27 -15 -6 -45 22 -46 44 -1 9 -2 22 -4 27 -1 6 -3 13 -3 18 -1 4 -13 0 -26 -9
-16 -10 -23 -21 -19 -31 4 -9 2 -14 -3 -10 -37 22 -173 -199 -195 -317 -15
-82 -7 -156 20 -177 13 -11 21 -29 21 -49 0 -17 7 -38 15 -47 9 -9 13 -23 10
-34 -4 -10 -3 -50 1 -89 l7 -70 37 0 38 0 7 -80 c7 -83 25 -111 25 -40 0 22 5
40 11 40 7 0 10 -16 8 -43 -4 -41 -3 -43 22 -39 25 4 26 2 32 -58 5 -47 3 -65
-8 -76 -8 -8 -12 -21 -9 -29 9 -24 24 -17 24 10 0 14 4 25 9 25 5 0 12 12 14
28 3 19 4 14 6 -15 0 -24 6 -43 11 -43 6 0 10 -18 10 -40 0 -36 2 -40 26 -40
l26 0 -7 -80 c-5 -59 -4 -80 5 -80 8 0 11 -15 8 -47 -3 -44 0 -51 35 -85 20
-21 37 -46 37 -56 0 -11 7 -26 16 -33 13 -11 15 -27 9 -96 -6 -72 -5 -83 9
-83 9 0 16 -7 16 -15 0 -8 9 -19 20 -25 11 -6 20 -17 20 -25 0 -9 9 -23 19
-31 16 -14 19 -32 20 -116 1 -55 6 -109 12 -120 15 -28 -4 -39 -61 -36 -47 2
-54 -9 -25 -39 8 -8 15 -20 15 -28 0 -7 7 -15 15 -19 8 -3 15 -11 15 -18 0 -7
26 -40 58 -73 115 -119 219 -196 377 -280 50 -26 122 -66 160 -88 80 -47 242
-127 255 -127 5 0 33 -11 62 -23 29 -13 80 -34 113 -46 33 -13 76 -29 95 -37
112 -44 347 -89 548 -104 136 -10 246 -3 390 25 66 12 218 74 300 121 51 30
95 54 97 54 5 0 56 38 128 95 56 44 117 128 177 240 29 55 56 105 60 110 17
22 83 194 97 250 9 33 16 96 17 141 1 75 -2 86 -39 160 -40 81 -93 155 -132
187 -13 10 -23 22 -23 27 0 5 -45 55 -100 112 -55 57 -100 109 -100 116 0 6
-5 12 -10 12 -6 0 -55 69 -110 153 -135 207 -142 216 -169 224 -21 5 -31 -1
-61 -36 -41 -47 -98 -81 -136 -81 -25 0 -84 30 -111 56 -43 41 -45 141 -6 249
14 39 29 86 33 105 4 19 15 60 23 90 14 52 18 81 35 240 4 36 7 117 6 180 0
101 -3 123 -27 179 -15 36 -27 71 -27 79 0 39 -128 266 -150 267 -10 1 -56 50
-53 57 2 4 -5 13 -17 20 -11 7 -20 18 -20 25 0 6 -5 13 -12 15 -21 7 -36 84
-26 133 5 25 14 45 19 45 5 0 9 11 9 25 0 14 4 25 9 25 5 0 14 21 20 48 13 63
50 144 61 137 6 -3 7 1 4 9 -3 9 4 28 15 42 12 15 26 47 32 71 6 24 15 43 20
43 5 0 9 18 9 40 0 22 -4 40 -10 40 -5 0 -10 18 -10 40 0 29 4 40 15 40 9 0
12 6 8 18 -12 33 -82 134 -102 149 -12 8 -21 23 -21 33 0 10 -5 22 -10 25 -13
8 -110 208 -110 225 0 6 -11 44 -23 83 -13 40 -34 117 -47 172 -13 55 -26 105
-29 110 -3 6 -6 19 -7 30 -1 11 -9 61 -18 110 -23 130 -21 260 5 337 12 35 25
65 29 68 4 3 11 16 15 30 4 14 18 39 31 56 13 17 24 34 24 38 0 7 19 30 85
100 17 18 60 65 98 104 37 40 67 75 67 78 0 3 9 13 21 22 11 10 24 37 30 61
11 51 2 148 -15 159 -6 4 -17 19 -23 34 -7 14 -28 34 -47 43 -20 10 -36 21
-36 26 0 5 -6 9 -13 9 -7 0 -31 13 -53 30 -21 16 -47 30 -56 30 -9 0 -21 7
-26 15 -5 11 -28 17 -71 20 -34 2 -68 8 -74 14 -15 12 -114 14 -237 6 -74 -6
-105 -4 -140 9 -31 11 -46 12 -51 4 -4 -7 -11 -3 -18 9 -8 16 -20 20 -66 20
-47 0 -55 -3 -55 -18 0 -20 -16 -26 -22 -9 -4 13 -78 -10 -78 -25 0 -13 -63
-45 -90 -45 -10 0 -22 -4 -25 -10 -3 -5 -13 -10 -21 -10 -9 0 -12 5 -8 12 5 7
3 8 -5 4 -7 -5 -17 -19 -22 -33 -7 -20 -15 -24 -34 -21 -21 5 -25 1 -25 -21 0
-20 -3 -22 -10 -11 -7 11 -13 12 -32 3 -41 -20 -52 -20 -88 4 -51 33 -63 47
-89 99 -27 53 -51 191 -35 202 5 4 14 21 20 37 6 17 17 29 25 27 9 -1 8 2 -4
12 -17 13 -17 16 -3 45 9 16 16 50 16 75 0 36 4 45 19 48 16 3 17 7 8 28 -10
24 -11 24 -14 4 -4 -20 -5 -20 -34 6 -24 23 -29 36 -29 74 0 40 -3 46 -20 46
-28 0 -66 42 -101 112 -24 48 -29 70 -29 133 0 41 4 75 9 75 5 0 11 9 14 21 3
11 15 23 26 26 12 3 21 13 21 22 0 14 2 14 10 1 7 -11 10 -1 10 34 0 45 -3 52
-47 92 -52 49 -53 50 -53 30z m-620 -310 c0 -3 -4 -8 -10 -11 -5 -3 -10 -1
-10 4 0 6 5 11 10 11 6 0 10 -2 10 -4z m0 -85 c0 -17 -18 -21 -24 -6 -3 9 0
15 9 15 8 0 15 -4 15 -9z m1015 -3261 c3 -5 1 -10 -4 -10 -6 0 -11 5 -11 10 0
6 2 10 4 10 3 0 8 -4 11 -10z m325 -236 c0 -12 9 -15 38 -14 62 3 69 1 75 -21
3 -11 15 -23 26 -26 12 -3 21 -12 21 -19 0 -8 10 -14 24 -14 21 0 55 -25 45
-34 -2 -2 -22 -6 -44 -8 -31 -4 -47 -1 -65 14 -13 10 -29 17 -36 14 -7 -3 -16
-1 -19 4 -4 6 -19 10 -36 10 -18 0 -29 5 -29 13 0 8 -18 20 -40 27 -22 7 -40
17 -40 22 0 4 -18 8 -40 8 -22 0 -40 5 -40 10 0 6 18 10 40 10 22 0 40 5 40
10 0 6 18 10 40 10 30 0 40 -4 40 -16z m-3617 -21 c-13 -2 -33 -2 -45 0 -13 2
-3 4 22 4 25 0 35 -2 23 -4z m4170 -292 c21 -20 52 -64 68 -98 28 -58 30 -67
28 -165 -2 -59 -9 -114 -16 -128 -7 -14 -13 -30 -13 -35 0 -15 -31 -74 -58
-112 -12 -17 -22 -35 -22 -41 0 -5 -27 -37 -59 -70 -32 -34 -80 -93 -106 -132
-61 -91 -104 -133 -174 -168 -51 -25 -69 -28 -211 -33 -85 -4 -195 -12 -243
-19 -129 -18 -245 6 -302 63 -9 9 -24 17 -34 17 -9 0 -26 9 -38 19 -15 14 -40
20 -102 23 -44 3 -84 8 -88 11 -3 4 -15 7 -25 7 -11 0 -23 13 -32 35 -8 19
-20 35 -26 35 -20 0 -6 45 15 49 10 2 32 17 49 35 18 20 31 26 33 19 3 -7 18
-13 34 -13 22 0 29 5 29 20 0 13 7 20 20 20 14 0 20 -7 20 -22 1 -29 22 -58
44 -58 9 0 16 -4 16 -9 0 -5 7 -12 16 -15 23 -9 99 77 114 128 7 23 21 49 31
59 10 10 19 27 19 38 0 11 7 22 15 25 8 4 15 11 15 18 0 16 75 96 90 96 6 0
25 11 42 25 16 14 38 25 49 25 10 0 19 5 19 10 0 6 7 10 15 10 8 0 15 6 15 13
0 47 150 88 187 51 9 -8 22 -13 30 -10 8 4 27 -2 41 -13 77 -53 184 -82 265
-71 68 10 101 28 123 71 19 39 15 73 -19 153 -9 21 -17 44 -17 51 0 8 -5 15
-11 17 -7 2 -8 27 -4 74 l7 71 57 -20 c31 -11 73 -36 94 -56z m-1142 -52 c48
-16 68 -37 95 -94 28 -59 30 -104 8 -151 -35 -73 -127 -118 -183 -90 -35 18
-117 104 -137 142 -16 29 -18 64 -6 64 5 0 17 17 26 38 19 42 73 84 120 93 17
4 34 7 37 8 3 0 21 -4 40 -10z m-3797 -114 c3 -8 1 -15 -4 -15 -6 0 -10 7 -10
15 0 8 2 15 4 15 2 0 6 -7 10 -15z m3374 -432 c-5 -25 -28 -28 -28 -4 0 12 6
21 16 21 9 0 14 -7 12 -17z"/>
<path d="M10660 11570 c0 -5 5 -10 11 -10 5 0 7 5 4 10 -3 6 -8 10 -11 10 -2
0 -4 -4 -4 -10z"/>
<path d="M10666 11541 c-4 -7 -5 -15 -2 -18 9 -9 19 4 14 18 -4 11 -6 11 -12
0z"/>
<path d="M6850 10545 c0 -8 5 -15 10 -15 6 0 10 7 10 15 0 8 -4 15 -10 15 -5
0 -10 -7 -10 -15z"/>
<path d="M6701 10417 c-6 -8 -8 -16 -5 -20 14 -14 -9 -47 -39 -55 -20 -5 -37
-18 -46 -36 -7 -16 -22 -31 -32 -33 -11 -3 -19 -12 -19 -19 0 -8 -5 -14 -10
-14 -17 0 -83 -68 -76 -78 3 -5 -12 -28 -34 -51 -22 -23 -40 -48 -40 -55 0 -7
-13 -25 -29 -40 -16 -15 -32 -43 -36 -62 -3 -19 -12 -34 -20 -34 -7 0 -16 -14
-20 -30 -4 -17 -12 -36 -19 -43 -7 -6 -29 -37 -50 -67 -21 -30 -44 -59 -52
-63 -8 -4 -14 -15 -14 -22 0 -8 -6 -15 -14 -15 -7 0 -16 -9 -19 -21 -3 -11
-15 -23 -26 -26 -23 -6 -28 -29 -8 -36 6 -2 -3 -11 -20 -21 -18 -9 -40 -31
-49 -49 -10 -17 -19 -26 -21 -19 -9 24 -19 12 -38 -43 -20 -60 -20 -59 13 -69
15 -5 22 -3 22 7 0 11 11 12 62 4 50 -8 85 -7 173 8 60 10 116 22 123 28 7 5
23 11 36 12 13 2 39 10 57 18 39 18 106 37 111 31 2 -2 17 8 32 21 16 14 39
25 51 25 13 0 28 6 34 14 7 8 27 17 45 20 19 4 39 13 46 21 7 8 22 15 34 15
12 0 31 6 42 14 18 13 79 29 162 43 17 3 32 9 32 14 0 5 18 9 40 9 22 0 40 -4
40 -10 0 -6 33 -10 80 -10 47 0 80 -4 80 -10 0 -13 24 -13 70 1 30 9 41 19 53
49 14 36 13 37 -14 62 -15 15 -35 39 -45 55 -10 15 -31 40 -47 56 -26 24 -35
27 -103 27 -43 0 -74 -4 -74 -10 0 -6 -8 -5 -20 2 -16 10 -24 10 -40 0 -12 -7
-20 -8 -20 -2 0 5 -11 10 -24 10 -14 0 -27 4 -30 9 -3 4 -25 12 -48 16 -24 5
-47 10 -53 11 -5 1 -15 2 -21 3 -6 0 -22 19 -37 42 -32 49 -36 125 -10 191 12
30 13 43 5 46 -8 2 -12 29 -12 75 0 109 -4 117 -55 117 -23 0 -48 -6 -54 -13z"/>
<path d="M10485 8490 c-3 -5 3 -10 15 -10 12 0 18 5 15 10 -3 6 -10 10 -15 10
-5 0 -12 -4 -15 -10z"/>
<path d="M10400 8470 c0 -5 5 -10 10 -10 6 0 10 5 10 10 0 6 -4 10 -10 10 -5
0 -10 -4 -10 -10z"/>
<path d="M10356 8455 c-4 -10 1 -15 14 -15 13 0 18 5 14 15 -4 8 -10 15 -14
15 -4 0 -10 -7 -14 -15z"/>
<path d="M10240 8230 c0 -5 7 -7 15 -4 8 4 15 8 15 10 0 2 -7 4 -15 4 -8 0
-15 -4 -15 -10z"/>
<path d="M17817 7623 c-12 -11 -8 -23 8 -23 8 0 15 7 15 15 0 16 -12 20 -23 8z"/>
<path d="M17345 7250 c-3 -5 -1 -10 4 -10 6 0 11 5 11 10 0 6 -2 10 -4 10 -3
0 -8 -4 -11 -10z"/>
<path d="M17840 7125 c0 -34 -1 -35 -39 -35 -28 0 -45 -7 -62 -25 -22 -23 -31
-25 -121 -25 -59 0 -98 -4 -98 -10 0 -5 -18 -10 -40 -10 -33 0 -40 -3 -40 -20
0 -17 7 -20 40 -20 22 0 40 -4 40 -10 0 -5 -18 -10 -40 -10 l-40 0 0 -40 0
-40 -80 0 c-73 0 -80 -2 -80 -20 0 -17 -7 -20 -40 -20 -33 0 -40 -3 -40 -20 0
-17 -7 -20 -40 -20 -33 0 -40 -3 -40 -20 0 -17 -7 -20 -40 -20 -33 0 -40 -3
-40 -20 0 -17 -7 -20 -40 -20 -28 0 -40 -4 -40 -14 0 -10 -22 -16 -80 -21 -69
-6 -80 -10 -80 -26 0 -14 -7 -19 -25 -19 -22 0 -25 -4 -25 -39 0 -42 -13 -51
-77 -51 -23 0 -33 -5 -33 -15 0 -11 11 -15 40 -15 22 0 40 -4 40 -10 0 -5 -18
-10 -40 -10 -22 0 -40 -4 -40 -10 0 -5 -18 -10 -40 -10 l-40 0 0 -80 0 -80
-40 0 -40 0 0 -40 0 -40 -55 0 -55 0 0 -40 c0 -40 0 -40 -39 -40 -22 0 -42 -6
-45 -12 -5 -10 -7 -10 -12 0 -3 6 -12 12 -20 12 -10 0 -13 -7 -8 -25 3 -14 -1
-38 -10 -57 -11 -20 -13 -34 -6 -36 19 -7 10 -32 -15 -38 -21 -5 -25 -12 -25
-45 l0 -39 -97 -2 c-78 -1 -89 -2 -53 -8 32 -5 10 -7 -77 -8 -74 -1 -123 -6
-123 -12 0 -6 47 -10 120 -10 73 0 120 -4 120 -10 0 -6 -47 -10 -120 -10 -100
0 -120 -2 -120 -15 0 -12 -16 -15 -80 -15 -80 0 -80 0 -80 26 0 27 0 27 -61
20 -34 -3 -70 -6 -80 -6 -11 0 -19 -7 -19 -15 0 -12 -14 -15 -67 -15 l-68 -1
24 -20 24 -20 -21 -15 c-20 -13 -22 -24 -22 -100 0 -83 0 -84 25 -84 23 0 25
-4 25 -40 0 -36 3 -40 25 -40 23 0 25 -4 25 -40 0 -38 2 -40 30 -40 28 0 30
-2 30 -40 0 -36 3 -40 25 -40 19 0 25 -5 25 -20 0 -12 11 -31 25 -44 18 -17
25 -34 25 -60 0 -29 4 -36 20 -36 16 0 20 -7 20 -34 0 -38 21 -66 82 -106 33
-22 38 -30 38 -62 0 -21 5 -38 10 -38 13 0 180 -166 180 -179 0 -24 121 -141
145 -141 8 0 15 -7 15 -15 0 -18 47 -65 65 -65 8 0 15 -7 15 -15 0 -18 47 -65
65 -65 8 0 15 -6 15 -14 0 -19 61 -82 87 -90 20 -7 73 -66 73 -83 0 -4 9 -14
20 -21 11 -7 20 -18 20 -26 0 -8 8 -12 23 -9 16 3 34 -7 65 -36 24 -23 50 -41
58 -41 15 0 84 -68 84 -82 0 -4 15 -15 33 -24 17 -9 58 -43 89 -75 34 -35 66
-59 78 -59 12 0 33 -13 47 -30 13 -16 32 -30 40 -30 9 0 26 -10 38 -22 34 -34
49 -45 73 -52 12 -4 22 -12 22 -17 0 -5 7 -9 15 -9 8 0 15 -5 15 -11 0 -5 26
-22 58 -36 48 -22 54 -27 37 -34 -17 -6 -16 -8 10 -10 17 -1 36 -2 43 -2 6 1
12 -6 12 -14 0 -22 41 -52 71 -53 20 0 28 -6 33 -25 4 -15 16 -27 32 -31 14
-4 23 -12 21 -19 -4 -8 3 -10 18 -7 17 3 31 -4 47 -21 13 -13 33 -27 46 -31
12 -4 22 -12 22 -17 0 -5 9 -9 19 -9 21 0 94 -67 86 -80 -2 -4 21 -19 53 -33
31 -13 66 -34 76 -46 15 -16 31 -21 68 -21 l48 0 0 1950 0 1950 -80 0 -80 0 0
-35z m-503 -411 c-3 -3 -12 -4 -19 -1 -8 3 -5 6 6 6 11 1 17 -2 13 -5z m-10
-70 c-3 -3 -12 -4 -19 -1 -8 3 -5 6 6 6 11 1 17 -2 13 -5z m-1010 -536 c-3 -7
-5 -2 -5 12 0 14 2 19 5 13 2 -7 2 -19 0 -25z m-27 -18 c0 -5 -4 -10 -10 -10
-5 0 -10 5 -10 10 0 6 5 10 10 10 6 0 10 -4 10 -10z m-43 -232 c-2 -13 -4 -3
-4 22 0 25 2 35 4 23 2 -13 2 -33 0 -45z m-777 -43 c0 -8 -7 -15 -15 -15 -8 0
-15 7 -15 15 0 8 7 15 15 15 8 0 15 -7 15 -15z m175 -15 c0 -12 -12 -14 -62
-12 -41 3 -63 0 -63 -7 0 -6 -7 -11 -15 -11 -30 0 -15 29 18 34 17 3 43 7 57
10 42 6 65 2 65 -14z m158 -37 c-24 -2 -62 -2 -85 0 -24 2 -5 4 42 4 47 0 66
-2 43 -4z m-158 -13 c-3 -5 -15 -10 -26 -10 -10 0 -19 5 -19 10 0 6 12 10 26
10 14 0 23 -4 19 -10z m115 -60 c0 -6 -29 -10 -66 -10 -41 0 -63 4 -59 10 3 6
33 10 66 10 33 0 59 -4 59 -10z m43 -257 c-24 -2 -62 -2 -85 0 -24 2 -5 4 42
4 47 0 66 -2 43 -4z m-123 -89 c0 -17 -22 -14 -28 4 -2 7 3 12 12 12 9 0 16
-7 16 -16z"/>
<path d="M16960 7109 c0 -5 5 -7 10 -4 6 3 10 8 10 11 0 2 -4 4 -10 4 -5 0
-10 -5 -10 -11z"/>
<path d="M17680 7100 c0 -22 25 -18 34 6 3 9 -1 14 -14 14 -13 0 -20 -7 -20
-20z"/>
<path d="M16945 6970 c-3 -5 -1 -10 4 -10 6 0 11 5 11 10 0 6 -2 10 -4 10 -3
0 -8 -4 -11 -10z"/>
<path d="M16188 6073 c6 -2 18 -2 25 0 6 3 1 5 -13 5 -14 0 -19 -2 -12 -5z"/>
<path d="M16160 6062 c0 -19 37 -55 49 -47 17 10 13 25 -5 25 -9 0 -23 8 -30
18 -9 11 -13 12 -14 4z"/>
<path d="M10055 5990 c3 -5 10 -10 16 -10 5 0 9 5 9 10 0 6 -7 10 -16 10 -8 0
-12 -4 -9 -10z"/>
<path d="M10146 5825 c4 -8 8 -15 10 -15 2 0 4 7 4 15 0 8 -4 15 -10 15 -5 0
-7 -7 -4 -15z"/>
<path d="M15340 5591 c0 -6 5 -13 10 -16 6 -3 10 1 10 9 0 9 -4 16 -10 16 -5
0 -10 -4 -10 -9z"/>
</g>
</svg>
